M48
; DRILL file {KiCad 5.1.6+dfsg1-1~bpo10+1} date Tue May 26 13:59:16 2020
; FORMAT={-:-/ absolute / inch / decimal}
; #@! TF.CreationDate,2020-05-26T13:59:16+10:00
; #@! TF.GenerationSoftware,Kicad,Pcbnew,5.1.6+dfsg1-1~bpo10+1
; #@! TF.FileFunction,Plated,1,2,PTH
FMAT,2
INCH
T1C0.0157
T2C0.0295
T3C0.0315
T4C0.0394
T5C0.0433
%
G90
G05
T1
X1.9122Y-1.6151
X2.0518Y-0.8384
X2.0521Y-1.1869
X2.0575Y-1.0836
X2.0876Y-1.1359
X2.1019Y-0.8856
X2.1043Y-2.8251
X2.1146Y-0.9454
X2.1147Y-0.9859
X2.1522Y-1.5616
X2.1705Y-2.9859
X2.1942Y-3.7124
X2.1952Y-3.6381
X2.2033Y-3.7943
X2.2139Y-2.8728
X2.2331Y-1.2928
X2.2523Y-3.6183
X2.2783Y-1.606
X2.3193Y-1.525
X2.3673Y-1.9991
X2.6237Y-0.8355
X2.6868Y-1.1162
X2.6897Y-0.7985
X2.7469Y-2.7327
X2.7823Y-1.09
X2.7925Y-2.2178
X2.8092Y-3.7873
X2.8129Y-1.2383
X2.8633Y-1.2762
X2.9526Y-2.7035
X3.0117Y-2.6677
X3.0905Y-1.1054
X3.1391Y-1.0303
X3.1655Y-2.5595
X3.2743Y-1.1642
X3.4262Y-1.6282
X3.4427Y-2.0306
X3.4682Y-1.4586
X3.4737Y-1.3807
X3.6886Y-1.9762
X3.737Y-2.8051
X4.0507Y-1.8274
X4.1865Y-2.8607
X4.2144Y-2.3512
X4.2223Y-2.7628
X4.2336Y-0.7745
X4.251Y-2.6196
X4.259Y-1.2848
X4.322Y-3.533
X4.3341Y-2.6551
X4.3845Y-2.018
X4.5275Y-1.5595
X4.5739Y-1.1567
X4.5877Y-2.8398
X4.6346Y-3.0556
X4.6461Y-3.5889
X4.7111Y-3.9535
X4.7781Y-1.1898
X4.8141Y-1.1168
X4.819Y-3.3755
X4.8625Y-3.0013
X4.8635Y-3.7248
X4.8782Y-3.8072
X4.9058Y-3.7775
X4.928Y-2.9562
X4.9372Y-1.1349
X4.9381Y-1.0804
X4.9715Y-0.9222
X4.9891Y-1.1681
X5.0192Y-1.0733
X5.0196Y-2.916
X5.0484Y-0.8679
X5.0595Y-1.0731
X5.0623Y-1.24
X5.1166Y-1.0663
X5.194Y-2.7823
X5.2333Y-3.0596
X5.2399Y-2.6907
X5.284Y-2.6643
X5.3048Y-0.9674
X5.3637Y-0.9346
X5.4078Y-1.1317
X5.4353Y-1.2437
X5.4672Y-3.1211
X5.4946Y-1.2295
X5.4956Y-1.1901
X5.5008Y-1.3908
X5.6002Y-2.7753
X5.7863Y-3.1979
X5.902Y-1.1575
X6.0108Y-3.5692
X6.0168Y-4.0224
X6.0275Y-1.0677
X6.0291Y-1.8965
X6.0629Y-3.0644
X6.1411Y-4.0525
X6.1943Y-3.1863
X6.2247Y-0.9388
X6.2744Y-1.8668
X6.3728Y-3.63
X6.423Y-3.6788
X6.4776Y-3.6977
X6.6321Y-3.9284
X6.6375Y-3.7407
X6.6524Y-3.8208
X6.7079Y-3.675
X6.8078Y-2.8276
X6.8141Y-2.7696
X6.8442Y-1.2659
X6.8446Y-3.775
X6.8481Y-3.7196
X6.9714Y-2.9259
X7.0661Y-3.1863
X7.0938Y-3.1584
X7.1134Y-3.1223
X7.1395Y-2.2098
X8.0834Y-1.705
X8.1546Y-1.8169
X8.1647Y-1.52
X8.1872Y-1.655
X8.2953Y-1.6934
T2
X8.845Y-3.41
X8.845Y-3.51
X8.895Y-3.46
T3
X1.355Y-3.25
X1.355Y-3.35
X1.355Y-3.45
X1.355Y-3.55
X1.355Y-3.65
X1.355Y-3.75
X1.355Y-3.85
X1.355Y-3.95
X1.355Y-4.05
X1.355Y-4.15
X1.655Y-3.25
X1.655Y-3.35
X1.655Y-3.45
X1.655Y-3.55
X1.655Y-3.65
X1.655Y-3.75
X1.655Y-3.85
X1.655Y-3.95
X1.655Y-4.05
X1.655Y-4.15
X2.26Y-2.305
X2.26Y-2.905
X2.36Y-2.305
X2.36Y-2.905
X2.46Y-2.305
X2.46Y-2.905
X2.56Y-2.305
X2.56Y-2.905
X2.66Y-2.305
X2.66Y-2.905
X2.76Y-2.305
X2.76Y-2.905
X2.86Y-2.305
X2.86Y-2.905
X2.96Y-2.305
X2.96Y-2.905
X3.06Y-2.305
X3.06Y-2.905
X3.16Y-2.305
X3.16Y-2.905
X3.26Y-2.305
X3.26Y-2.905
X3.36Y-2.305
X3.36Y-2.905
X3.46Y-2.305
X3.46Y-2.905
X3.56Y-2.305
X3.56Y-2.905
X8.4981Y-2.165
X8.695Y-2.165
X3.22Y-0.815
X3.22Y-0.915
X3.22Y-1.015
X3.22Y-1.115
X3.22Y-1.215
X3.22Y-1.315
X3.22Y-1.415
X3.22Y-1.515
X3.22Y-1.615
X3.22Y-1.715
X3.22Y-1.815
X3.22Y-1.915
X3.52Y-0.815
X3.52Y-0.915
X3.52Y-1.015
X3.52Y-1.115
X3.52Y-1.215
X3.52Y-1.315
X3.52Y-1.415
X3.52Y-1.515
X3.52Y-1.615
X3.52Y-1.715
X3.52Y-1.815
X3.52Y-1.915
X8.945Y-1.36
X8.945Y-1.46
X8.945Y-1.56
X8.945Y-1.66
X8.945Y-1.76
X8.945Y-1.86
X8.945Y-1.96
X8.945Y-2.06
X8.945Y-2.16
X8.945Y-2.26
X8.945Y-2.36
X8.945Y-2.46
X9.545Y-1.36
X9.545Y-1.46
X9.545Y-1.56
X9.545Y-1.66
X9.545Y-1.76
X9.545Y-1.86
X9.545Y-1.96
X9.545Y-2.06
X9.545Y-2.16
X9.545Y-2.26
X9.545Y-2.36
X9.545Y-2.46
X2.165Y-3.46
X2.165Y-4.06
X2.265Y-3.46
X2.265Y-4.06
X2.365Y-3.46
X2.365Y-4.06
X2.465Y-3.46
X2.465Y-4.06
X2.565Y-3.46
X2.565Y-4.06
X2.665Y-3.46
X2.665Y-4.06
X2.765Y-3.46
X2.765Y-4.06
X2.865Y-3.46
X2.865Y-4.06
X2.965Y-3.46
X2.965Y-4.06
X3.065Y-3.46
X3.065Y-4.06
X3.165Y-3.46
X3.165Y-4.06
X3.265Y-3.46
X3.265Y-4.06
X3.365Y-3.46
X3.365Y-4.06
X3.465Y-3.46
X3.465Y-4.06
X3.565Y-3.46
X3.565Y-4.06
X3.665Y-3.46
X3.665Y-4.06
X6.9Y-0.82
X6.9Y-0.92
X6.9Y-1.02
X6.9Y-1.12
X6.9Y-1.22
X6.9Y-1.32
X6.9Y-1.42
X6.9Y-1.52
X6.9Y-1.62
X6.9Y-1.72
X6.9Y-1.82
X6.9Y-1.92
X6.9Y-2.02
X6.9Y-2.12
X6.9Y-2.22
X6.9Y-2.32
X6.9Y-2.42
X6.9Y-2.52
X6.9Y-2.62
X6.9Y-2.72
X7.5Y-0.82
X7.5Y-0.92
X7.5Y-1.02
X7.5Y-1.12
X7.5Y-1.22
X7.5Y-1.32
X7.5Y-1.42
X7.5Y-1.52
X7.5Y-1.62
X7.5Y-1.72
X7.5Y-1.82
X7.5Y-1.92
X7.5Y-2.02
X7.5Y-2.12
X7.5Y-2.22
X7.5Y-2.32
X7.5Y-2.42
X7.5Y-2.52
X7.5Y-2.62
X7.5Y-2.72
X1.37Y-1.855
X1.37Y-1.955
X1.37Y-2.055
X1.37Y-2.155
X1.37Y-2.255
X1.37Y-2.355
X1.37Y-2.455
X1.37Y-2.555
X1.37Y-2.655
X1.37Y-2.755
X1.67Y-1.855
X1.67Y-1.955
X1.67Y-2.055
X1.67Y-2.155
X1.67Y-2.255
X1.67Y-2.355
X1.67Y-2.455
X1.67Y-2.555
X1.67Y-2.655
X1.67Y-2.755
X4.575Y-1.78
X4.575Y-2.38
X4.675Y-1.78
X4.675Y-2.38
X4.775Y-1.78
X4.775Y-2.38
X4.875Y-1.78
X4.875Y-2.38
X4.975Y-1.78
X4.975Y-2.38
X5.075Y-1.78
X5.075Y-2.38
X5.175Y-1.78
X5.175Y-2.38
X5.275Y-1.78
X5.275Y-2.38
X5.375Y-1.78
X5.375Y-2.38
X5.475Y-1.78
X5.475Y-2.38
X5.575Y-1.78
X5.575Y-2.38
X5.675Y-1.78
X5.675Y-2.38
X5.775Y-1.78
X5.775Y-2.38
X5.875Y-1.78
X5.875Y-2.38
X5.975Y-1.78
X5.975Y-2.38
X6.075Y-1.78
X6.075Y-2.38
X6.175Y-1.78
X6.175Y-2.38
X6.275Y-1.78
X6.275Y-2.38
X6.375Y-1.78
X6.375Y-2.38
X6.475Y-1.78
X6.475Y-2.38
X6.575Y-1.78
X6.575Y-2.38
X7.645Y-3.43
X7.645Y-3.73
X8.245Y-3.43
X8.245Y-3.73
X3.865Y-0.815
X3.865Y-0.915
X3.865Y-1.015
X3.865Y-1.115
X3.865Y-1.215
X3.865Y-1.315
X3.865Y-1.415
X3.865Y-1.515
X3.865Y-1.615
X3.865Y-1.715
X3.865Y-1.815
X3.865Y-1.915
X4.165Y-0.815
X4.165Y-0.915
X4.165Y-1.015
X4.165Y-1.115
X4.165Y-1.215
X4.165Y-1.315
X4.165Y-1.415
X4.165Y-1.515
X4.165Y-1.615
X4.165Y-1.715
X4.165Y-1.815
X4.165Y-1.915
T4
X0.875Y-0.835
X0.875Y-0.935
X0.875Y-1.035
X0.875Y-1.135
X0.875Y-1.235
X0.875Y-1.335
X0.875Y-1.435
X0.875Y-1.535
X0.875Y-1.635
X0.875Y-1.735
X7.68Y-0.82
X7.68Y-0.92
X7.68Y-1.02
X7.68Y-1.12
X7.68Y-1.22
X7.68Y-1.32
X7.68Y-1.42
X7.68Y-1.52
X7.68Y-1.62
X7.68Y-1.72
X7.68Y-1.82
X7.68Y-1.92
X7.68Y-2.02
X7.68Y-2.12
X7.68Y-2.22
X7.68Y-2.32
X7.68Y-2.42
X7.68Y-2.52
X8.555Y-3.5
X8.555Y-3.6
X0.875Y-2.12
X0.875Y-2.22
X0.875Y-2.32
X0.875Y-2.42
X0.875Y-2.52
X0.875Y-2.62
X0.875Y-2.72
X0.875Y-2.82
X0.875Y-2.92
X0.875Y-3.02
X0.875Y-3.12
X0.875Y-3.22
X0.875Y-3.32
X0.875Y-3.42
X0.875Y-3.52
X0.875Y-3.62
X0.875Y-3.72
X0.875Y-3.82
X8.625Y-0.83
X8.625Y-0.93
X8.625Y-1.03
X8.625Y-1.13
X8.625Y-1.23
X8.625Y-1.33
T5
X9.1931Y-2.8831
X9.1931Y-3.08
X9.39Y-2.8831
X9.39Y-3.08
T0
M30
