G04 #@! TF.GenerationSoftware,KiCad,Pcbnew,5.1.6+dfsg1-1~bpo10+1*
G04 #@! TF.CreationDate,2020-05-26T13:58:40+10:00*
G04 #@! TF.ProjectId,FISC,46495343-2e6b-4696-9361-645f70636258,rev?*
G04 #@! TF.SameCoordinates,Original*
G04 #@! TF.FileFunction,Paste,Top*
G04 #@! TF.FilePolarity,Positive*
%FSLAX46Y46*%
G04 Gerber Fmt 4.6, Leading zero omitted, Abs format (unit mm)*
G04 Created by KiCad (PCBNEW 5.1.6+dfsg1-1~bpo10+1) date 2020-05-26 13:58:40*
%MOMM*%
%LPD*%
G01*
G04 APERTURE LIST*
%ADD10R,1.950000X0.600000*%
%ADD11R,1.500000X0.600000*%
G04 APERTURE END LIST*
G36*
G01*
X45125000Y-20089000D02*
X45125000Y-19789000D01*
G75*
G02*
X45275000Y-19639000I150000J0D01*
G01*
X47025000Y-19639000D01*
G75*
G02*
X47175000Y-19789000I0J-150000D01*
G01*
X47175000Y-20089000D01*
G75*
G02*
X47025000Y-20239000I-150000J0D01*
G01*
X45275000Y-20239000D01*
G75*
G02*
X45125000Y-20089000I0J150000D01*
G01*
G37*
G36*
G01*
X45125000Y-21359000D02*
X45125000Y-21059000D01*
G75*
G02*
X45275000Y-20909000I150000J0D01*
G01*
X47025000Y-20909000D01*
G75*
G02*
X47175000Y-21059000I0J-150000D01*
G01*
X47175000Y-21359000D01*
G75*
G02*
X47025000Y-21509000I-150000J0D01*
G01*
X45275000Y-21509000D01*
G75*
G02*
X45125000Y-21359000I0J150000D01*
G01*
G37*
G36*
G01*
X45125000Y-22629000D02*
X45125000Y-22329000D01*
G75*
G02*
X45275000Y-22179000I150000J0D01*
G01*
X47025000Y-22179000D01*
G75*
G02*
X47175000Y-22329000I0J-150000D01*
G01*
X47175000Y-22629000D01*
G75*
G02*
X47025000Y-22779000I-150000J0D01*
G01*
X45275000Y-22779000D01*
G75*
G02*
X45125000Y-22629000I0J150000D01*
G01*
G37*
G36*
G01*
X45125000Y-23899000D02*
X45125000Y-23599000D01*
G75*
G02*
X45275000Y-23449000I150000J0D01*
G01*
X47025000Y-23449000D01*
G75*
G02*
X47175000Y-23599000I0J-150000D01*
G01*
X47175000Y-23899000D01*
G75*
G02*
X47025000Y-24049000I-150000J0D01*
G01*
X45275000Y-24049000D01*
G75*
G02*
X45125000Y-23899000I0J150000D01*
G01*
G37*
G36*
G01*
X45125000Y-25169000D02*
X45125000Y-24869000D01*
G75*
G02*
X45275000Y-24719000I150000J0D01*
G01*
X47025000Y-24719000D01*
G75*
G02*
X47175000Y-24869000I0J-150000D01*
G01*
X47175000Y-25169000D01*
G75*
G02*
X47025000Y-25319000I-150000J0D01*
G01*
X45275000Y-25319000D01*
G75*
G02*
X45125000Y-25169000I0J150000D01*
G01*
G37*
G36*
G01*
X45125000Y-26439000D02*
X45125000Y-26139000D01*
G75*
G02*
X45275000Y-25989000I150000J0D01*
G01*
X47025000Y-25989000D01*
G75*
G02*
X47175000Y-26139000I0J-150000D01*
G01*
X47175000Y-26439000D01*
G75*
G02*
X47025000Y-26589000I-150000J0D01*
G01*
X45275000Y-26589000D01*
G75*
G02*
X45125000Y-26439000I0J150000D01*
G01*
G37*
G36*
G01*
X45125000Y-27709000D02*
X45125000Y-27409000D01*
G75*
G02*
X45275000Y-27259000I150000J0D01*
G01*
X47025000Y-27259000D01*
G75*
G02*
X47175000Y-27409000I0J-150000D01*
G01*
X47175000Y-27709000D01*
G75*
G02*
X47025000Y-27859000I-150000J0D01*
G01*
X45275000Y-27859000D01*
G75*
G02*
X45125000Y-27709000I0J150000D01*
G01*
G37*
G36*
G01*
X45125000Y-28979000D02*
X45125000Y-28679000D01*
G75*
G02*
X45275000Y-28529000I150000J0D01*
G01*
X47025000Y-28529000D01*
G75*
G02*
X47175000Y-28679000I0J-150000D01*
G01*
X47175000Y-28979000D01*
G75*
G02*
X47025000Y-29129000I-150000J0D01*
G01*
X45275000Y-29129000D01*
G75*
G02*
X45125000Y-28979000I0J150000D01*
G01*
G37*
G36*
G01*
X45125000Y-30249000D02*
X45125000Y-29949000D01*
G75*
G02*
X45275000Y-29799000I150000J0D01*
G01*
X47025000Y-29799000D01*
G75*
G02*
X47175000Y-29949000I0J-150000D01*
G01*
X47175000Y-30249000D01*
G75*
G02*
X47025000Y-30399000I-150000J0D01*
G01*
X45275000Y-30399000D01*
G75*
G02*
X45125000Y-30249000I0J150000D01*
G01*
G37*
G36*
G01*
X45125000Y-31519000D02*
X45125000Y-31219000D01*
G75*
G02*
X45275000Y-31069000I150000J0D01*
G01*
X47025000Y-31069000D01*
G75*
G02*
X47175000Y-31219000I0J-150000D01*
G01*
X47175000Y-31519000D01*
G75*
G02*
X47025000Y-31669000I-150000J0D01*
G01*
X45275000Y-31669000D01*
G75*
G02*
X45125000Y-31519000I0J150000D01*
G01*
G37*
G36*
G01*
X54425000Y-31519000D02*
X54425000Y-31219000D01*
G75*
G02*
X54575000Y-31069000I150000J0D01*
G01*
X56325000Y-31069000D01*
G75*
G02*
X56475000Y-31219000I0J-150000D01*
G01*
X56475000Y-31519000D01*
G75*
G02*
X56325000Y-31669000I-150000J0D01*
G01*
X54575000Y-31669000D01*
G75*
G02*
X54425000Y-31519000I0J150000D01*
G01*
G37*
G36*
G01*
X54425000Y-30249000D02*
X54425000Y-29949000D01*
G75*
G02*
X54575000Y-29799000I150000J0D01*
G01*
X56325000Y-29799000D01*
G75*
G02*
X56475000Y-29949000I0J-150000D01*
G01*
X56475000Y-30249000D01*
G75*
G02*
X56325000Y-30399000I-150000J0D01*
G01*
X54575000Y-30399000D01*
G75*
G02*
X54425000Y-30249000I0J150000D01*
G01*
G37*
G36*
G01*
X54425000Y-28979000D02*
X54425000Y-28679000D01*
G75*
G02*
X54575000Y-28529000I150000J0D01*
G01*
X56325000Y-28529000D01*
G75*
G02*
X56475000Y-28679000I0J-150000D01*
G01*
X56475000Y-28979000D01*
G75*
G02*
X56325000Y-29129000I-150000J0D01*
G01*
X54575000Y-29129000D01*
G75*
G02*
X54425000Y-28979000I0J150000D01*
G01*
G37*
G36*
G01*
X54425000Y-27709000D02*
X54425000Y-27409000D01*
G75*
G02*
X54575000Y-27259000I150000J0D01*
G01*
X56325000Y-27259000D01*
G75*
G02*
X56475000Y-27409000I0J-150000D01*
G01*
X56475000Y-27709000D01*
G75*
G02*
X56325000Y-27859000I-150000J0D01*
G01*
X54575000Y-27859000D01*
G75*
G02*
X54425000Y-27709000I0J150000D01*
G01*
G37*
G36*
G01*
X54425000Y-26439000D02*
X54425000Y-26139000D01*
G75*
G02*
X54575000Y-25989000I150000J0D01*
G01*
X56325000Y-25989000D01*
G75*
G02*
X56475000Y-26139000I0J-150000D01*
G01*
X56475000Y-26439000D01*
G75*
G02*
X56325000Y-26589000I-150000J0D01*
G01*
X54575000Y-26589000D01*
G75*
G02*
X54425000Y-26439000I0J150000D01*
G01*
G37*
G36*
G01*
X54425000Y-25169000D02*
X54425000Y-24869000D01*
G75*
G02*
X54575000Y-24719000I150000J0D01*
G01*
X56325000Y-24719000D01*
G75*
G02*
X56475000Y-24869000I0J-150000D01*
G01*
X56475000Y-25169000D01*
G75*
G02*
X56325000Y-25319000I-150000J0D01*
G01*
X54575000Y-25319000D01*
G75*
G02*
X54425000Y-25169000I0J150000D01*
G01*
G37*
G36*
G01*
X54425000Y-23899000D02*
X54425000Y-23599000D01*
G75*
G02*
X54575000Y-23449000I150000J0D01*
G01*
X56325000Y-23449000D01*
G75*
G02*
X56475000Y-23599000I0J-150000D01*
G01*
X56475000Y-23899000D01*
G75*
G02*
X56325000Y-24049000I-150000J0D01*
G01*
X54575000Y-24049000D01*
G75*
G02*
X54425000Y-23899000I0J150000D01*
G01*
G37*
G36*
G01*
X54425000Y-22629000D02*
X54425000Y-22329000D01*
G75*
G02*
X54575000Y-22179000I150000J0D01*
G01*
X56325000Y-22179000D01*
G75*
G02*
X56475000Y-22329000I0J-150000D01*
G01*
X56475000Y-22629000D01*
G75*
G02*
X56325000Y-22779000I-150000J0D01*
G01*
X54575000Y-22779000D01*
G75*
G02*
X54425000Y-22629000I0J150000D01*
G01*
G37*
G36*
G01*
X54425000Y-21359000D02*
X54425000Y-21059000D01*
G75*
G02*
X54575000Y-20909000I150000J0D01*
G01*
X56325000Y-20909000D01*
G75*
G02*
X56475000Y-21059000I0J-150000D01*
G01*
X56475000Y-21359000D01*
G75*
G02*
X56325000Y-21509000I-150000J0D01*
G01*
X54575000Y-21509000D01*
G75*
G02*
X54425000Y-21359000I0J150000D01*
G01*
G37*
G36*
G01*
X54425000Y-20089000D02*
X54425000Y-19789000D01*
G75*
G02*
X54575000Y-19639000I150000J0D01*
G01*
X56325000Y-19639000D01*
G75*
G02*
X56475000Y-19789000I0J-150000D01*
G01*
X56475000Y-20089000D01*
G75*
G02*
X56325000Y-20239000I-150000J0D01*
G01*
X54575000Y-20239000D01*
G75*
G02*
X54425000Y-20089000I0J150000D01*
G01*
G37*
G36*
G01*
X72078000Y-20216000D02*
X72078000Y-19916000D01*
G75*
G02*
X72228000Y-19766000I150000J0D01*
G01*
X73978000Y-19766000D01*
G75*
G02*
X74128000Y-19916000I0J-150000D01*
G01*
X74128000Y-20216000D01*
G75*
G02*
X73978000Y-20366000I-150000J0D01*
G01*
X72228000Y-20366000D01*
G75*
G02*
X72078000Y-20216000I0J150000D01*
G01*
G37*
G36*
G01*
X72078000Y-21486000D02*
X72078000Y-21186000D01*
G75*
G02*
X72228000Y-21036000I150000J0D01*
G01*
X73978000Y-21036000D01*
G75*
G02*
X74128000Y-21186000I0J-150000D01*
G01*
X74128000Y-21486000D01*
G75*
G02*
X73978000Y-21636000I-150000J0D01*
G01*
X72228000Y-21636000D01*
G75*
G02*
X72078000Y-21486000I0J150000D01*
G01*
G37*
G36*
G01*
X72078000Y-22756000D02*
X72078000Y-22456000D01*
G75*
G02*
X72228000Y-22306000I150000J0D01*
G01*
X73978000Y-22306000D01*
G75*
G02*
X74128000Y-22456000I0J-150000D01*
G01*
X74128000Y-22756000D01*
G75*
G02*
X73978000Y-22906000I-150000J0D01*
G01*
X72228000Y-22906000D01*
G75*
G02*
X72078000Y-22756000I0J150000D01*
G01*
G37*
G36*
G01*
X72078000Y-24026000D02*
X72078000Y-23726000D01*
G75*
G02*
X72228000Y-23576000I150000J0D01*
G01*
X73978000Y-23576000D01*
G75*
G02*
X74128000Y-23726000I0J-150000D01*
G01*
X74128000Y-24026000D01*
G75*
G02*
X73978000Y-24176000I-150000J0D01*
G01*
X72228000Y-24176000D01*
G75*
G02*
X72078000Y-24026000I0J150000D01*
G01*
G37*
G36*
G01*
X72078000Y-25296000D02*
X72078000Y-24996000D01*
G75*
G02*
X72228000Y-24846000I150000J0D01*
G01*
X73978000Y-24846000D01*
G75*
G02*
X74128000Y-24996000I0J-150000D01*
G01*
X74128000Y-25296000D01*
G75*
G02*
X73978000Y-25446000I-150000J0D01*
G01*
X72228000Y-25446000D01*
G75*
G02*
X72078000Y-25296000I0J150000D01*
G01*
G37*
G36*
G01*
X72078000Y-26566000D02*
X72078000Y-26266000D01*
G75*
G02*
X72228000Y-26116000I150000J0D01*
G01*
X73978000Y-26116000D01*
G75*
G02*
X74128000Y-26266000I0J-150000D01*
G01*
X74128000Y-26566000D01*
G75*
G02*
X73978000Y-26716000I-150000J0D01*
G01*
X72228000Y-26716000D01*
G75*
G02*
X72078000Y-26566000I0J150000D01*
G01*
G37*
G36*
G01*
X72078000Y-27836000D02*
X72078000Y-27536000D01*
G75*
G02*
X72228000Y-27386000I150000J0D01*
G01*
X73978000Y-27386000D01*
G75*
G02*
X74128000Y-27536000I0J-150000D01*
G01*
X74128000Y-27836000D01*
G75*
G02*
X73978000Y-27986000I-150000J0D01*
G01*
X72228000Y-27986000D01*
G75*
G02*
X72078000Y-27836000I0J150000D01*
G01*
G37*
G36*
G01*
X72078000Y-29106000D02*
X72078000Y-28806000D01*
G75*
G02*
X72228000Y-28656000I150000J0D01*
G01*
X73978000Y-28656000D01*
G75*
G02*
X74128000Y-28806000I0J-150000D01*
G01*
X74128000Y-29106000D01*
G75*
G02*
X73978000Y-29256000I-150000J0D01*
G01*
X72228000Y-29256000D01*
G75*
G02*
X72078000Y-29106000I0J150000D01*
G01*
G37*
G36*
G01*
X72078000Y-30376000D02*
X72078000Y-30076000D01*
G75*
G02*
X72228000Y-29926000I150000J0D01*
G01*
X73978000Y-29926000D01*
G75*
G02*
X74128000Y-30076000I0J-150000D01*
G01*
X74128000Y-30376000D01*
G75*
G02*
X73978000Y-30526000I-150000J0D01*
G01*
X72228000Y-30526000D01*
G75*
G02*
X72078000Y-30376000I0J150000D01*
G01*
G37*
G36*
G01*
X72078000Y-31646000D02*
X72078000Y-31346000D01*
G75*
G02*
X72228000Y-31196000I150000J0D01*
G01*
X73978000Y-31196000D01*
G75*
G02*
X74128000Y-31346000I0J-150000D01*
G01*
X74128000Y-31646000D01*
G75*
G02*
X73978000Y-31796000I-150000J0D01*
G01*
X72228000Y-31796000D01*
G75*
G02*
X72078000Y-31646000I0J150000D01*
G01*
G37*
G36*
G01*
X62778000Y-31646000D02*
X62778000Y-31346000D01*
G75*
G02*
X62928000Y-31196000I150000J0D01*
G01*
X64678000Y-31196000D01*
G75*
G02*
X64828000Y-31346000I0J-150000D01*
G01*
X64828000Y-31646000D01*
G75*
G02*
X64678000Y-31796000I-150000J0D01*
G01*
X62928000Y-31796000D01*
G75*
G02*
X62778000Y-31646000I0J150000D01*
G01*
G37*
G36*
G01*
X62778000Y-30376000D02*
X62778000Y-30076000D01*
G75*
G02*
X62928000Y-29926000I150000J0D01*
G01*
X64678000Y-29926000D01*
G75*
G02*
X64828000Y-30076000I0J-150000D01*
G01*
X64828000Y-30376000D01*
G75*
G02*
X64678000Y-30526000I-150000J0D01*
G01*
X62928000Y-30526000D01*
G75*
G02*
X62778000Y-30376000I0J150000D01*
G01*
G37*
G36*
G01*
X62778000Y-29106000D02*
X62778000Y-28806000D01*
G75*
G02*
X62928000Y-28656000I150000J0D01*
G01*
X64678000Y-28656000D01*
G75*
G02*
X64828000Y-28806000I0J-150000D01*
G01*
X64828000Y-29106000D01*
G75*
G02*
X64678000Y-29256000I-150000J0D01*
G01*
X62928000Y-29256000D01*
G75*
G02*
X62778000Y-29106000I0J150000D01*
G01*
G37*
G36*
G01*
X62778000Y-27836000D02*
X62778000Y-27536000D01*
G75*
G02*
X62928000Y-27386000I150000J0D01*
G01*
X64678000Y-27386000D01*
G75*
G02*
X64828000Y-27536000I0J-150000D01*
G01*
X64828000Y-27836000D01*
G75*
G02*
X64678000Y-27986000I-150000J0D01*
G01*
X62928000Y-27986000D01*
G75*
G02*
X62778000Y-27836000I0J150000D01*
G01*
G37*
G36*
G01*
X62778000Y-26566000D02*
X62778000Y-26266000D01*
G75*
G02*
X62928000Y-26116000I150000J0D01*
G01*
X64678000Y-26116000D01*
G75*
G02*
X64828000Y-26266000I0J-150000D01*
G01*
X64828000Y-26566000D01*
G75*
G02*
X64678000Y-26716000I-150000J0D01*
G01*
X62928000Y-26716000D01*
G75*
G02*
X62778000Y-26566000I0J150000D01*
G01*
G37*
G36*
G01*
X62778000Y-25296000D02*
X62778000Y-24996000D01*
G75*
G02*
X62928000Y-24846000I150000J0D01*
G01*
X64678000Y-24846000D01*
G75*
G02*
X64828000Y-24996000I0J-150000D01*
G01*
X64828000Y-25296000D01*
G75*
G02*
X64678000Y-25446000I-150000J0D01*
G01*
X62928000Y-25446000D01*
G75*
G02*
X62778000Y-25296000I0J150000D01*
G01*
G37*
G36*
G01*
X62778000Y-24026000D02*
X62778000Y-23726000D01*
G75*
G02*
X62928000Y-23576000I150000J0D01*
G01*
X64678000Y-23576000D01*
G75*
G02*
X64828000Y-23726000I0J-150000D01*
G01*
X64828000Y-24026000D01*
G75*
G02*
X64678000Y-24176000I-150000J0D01*
G01*
X62928000Y-24176000D01*
G75*
G02*
X62778000Y-24026000I0J150000D01*
G01*
G37*
G36*
G01*
X62778000Y-22756000D02*
X62778000Y-22456000D01*
G75*
G02*
X62928000Y-22306000I150000J0D01*
G01*
X64678000Y-22306000D01*
G75*
G02*
X64828000Y-22456000I0J-150000D01*
G01*
X64828000Y-22756000D01*
G75*
G02*
X64678000Y-22906000I-150000J0D01*
G01*
X62928000Y-22906000D01*
G75*
G02*
X62778000Y-22756000I0J150000D01*
G01*
G37*
G36*
G01*
X62778000Y-21486000D02*
X62778000Y-21186000D01*
G75*
G02*
X62928000Y-21036000I150000J0D01*
G01*
X64678000Y-21036000D01*
G75*
G02*
X64828000Y-21186000I0J-150000D01*
G01*
X64828000Y-21486000D01*
G75*
G02*
X64678000Y-21636000I-150000J0D01*
G01*
X62928000Y-21636000D01*
G75*
G02*
X62778000Y-21486000I0J150000D01*
G01*
G37*
G36*
G01*
X62778000Y-20216000D02*
X62778000Y-19916000D01*
G75*
G02*
X62928000Y-19766000I150000J0D01*
G01*
X64678000Y-19766000D01*
G75*
G02*
X64828000Y-19916000I0J-150000D01*
G01*
X64828000Y-20216000D01*
G75*
G02*
X64678000Y-20366000I-150000J0D01*
G01*
X62928000Y-20366000D01*
G75*
G02*
X62778000Y-20216000I0J150000D01*
G01*
G37*
G36*
G01*
X28234000Y-20089000D02*
X28234000Y-19789000D01*
G75*
G02*
X28384000Y-19639000I150000J0D01*
G01*
X30134000Y-19639000D01*
G75*
G02*
X30284000Y-19789000I0J-150000D01*
G01*
X30284000Y-20089000D01*
G75*
G02*
X30134000Y-20239000I-150000J0D01*
G01*
X28384000Y-20239000D01*
G75*
G02*
X28234000Y-20089000I0J150000D01*
G01*
G37*
G36*
G01*
X28234000Y-21359000D02*
X28234000Y-21059000D01*
G75*
G02*
X28384000Y-20909000I150000J0D01*
G01*
X30134000Y-20909000D01*
G75*
G02*
X30284000Y-21059000I0J-150000D01*
G01*
X30284000Y-21359000D01*
G75*
G02*
X30134000Y-21509000I-150000J0D01*
G01*
X28384000Y-21509000D01*
G75*
G02*
X28234000Y-21359000I0J150000D01*
G01*
G37*
G36*
G01*
X28234000Y-22629000D02*
X28234000Y-22329000D01*
G75*
G02*
X28384000Y-22179000I150000J0D01*
G01*
X30134000Y-22179000D01*
G75*
G02*
X30284000Y-22329000I0J-150000D01*
G01*
X30284000Y-22629000D01*
G75*
G02*
X30134000Y-22779000I-150000J0D01*
G01*
X28384000Y-22779000D01*
G75*
G02*
X28234000Y-22629000I0J150000D01*
G01*
G37*
G36*
G01*
X28234000Y-23899000D02*
X28234000Y-23599000D01*
G75*
G02*
X28384000Y-23449000I150000J0D01*
G01*
X30134000Y-23449000D01*
G75*
G02*
X30284000Y-23599000I0J-150000D01*
G01*
X30284000Y-23899000D01*
G75*
G02*
X30134000Y-24049000I-150000J0D01*
G01*
X28384000Y-24049000D01*
G75*
G02*
X28234000Y-23899000I0J150000D01*
G01*
G37*
G36*
G01*
X28234000Y-25169000D02*
X28234000Y-24869000D01*
G75*
G02*
X28384000Y-24719000I150000J0D01*
G01*
X30134000Y-24719000D01*
G75*
G02*
X30284000Y-24869000I0J-150000D01*
G01*
X30284000Y-25169000D01*
G75*
G02*
X30134000Y-25319000I-150000J0D01*
G01*
X28384000Y-25319000D01*
G75*
G02*
X28234000Y-25169000I0J150000D01*
G01*
G37*
G36*
G01*
X28234000Y-26439000D02*
X28234000Y-26139000D01*
G75*
G02*
X28384000Y-25989000I150000J0D01*
G01*
X30134000Y-25989000D01*
G75*
G02*
X30284000Y-26139000I0J-150000D01*
G01*
X30284000Y-26439000D01*
G75*
G02*
X30134000Y-26589000I-150000J0D01*
G01*
X28384000Y-26589000D01*
G75*
G02*
X28234000Y-26439000I0J150000D01*
G01*
G37*
G36*
G01*
X28234000Y-27709000D02*
X28234000Y-27409000D01*
G75*
G02*
X28384000Y-27259000I150000J0D01*
G01*
X30134000Y-27259000D01*
G75*
G02*
X30284000Y-27409000I0J-150000D01*
G01*
X30284000Y-27709000D01*
G75*
G02*
X30134000Y-27859000I-150000J0D01*
G01*
X28384000Y-27859000D01*
G75*
G02*
X28234000Y-27709000I0J150000D01*
G01*
G37*
G36*
G01*
X28234000Y-28979000D02*
X28234000Y-28679000D01*
G75*
G02*
X28384000Y-28529000I150000J0D01*
G01*
X30134000Y-28529000D01*
G75*
G02*
X30284000Y-28679000I0J-150000D01*
G01*
X30284000Y-28979000D01*
G75*
G02*
X30134000Y-29129000I-150000J0D01*
G01*
X28384000Y-29129000D01*
G75*
G02*
X28234000Y-28979000I0J150000D01*
G01*
G37*
G36*
G01*
X28234000Y-30249000D02*
X28234000Y-29949000D01*
G75*
G02*
X28384000Y-29799000I150000J0D01*
G01*
X30134000Y-29799000D01*
G75*
G02*
X30284000Y-29949000I0J-150000D01*
G01*
X30284000Y-30249000D01*
G75*
G02*
X30134000Y-30399000I-150000J0D01*
G01*
X28384000Y-30399000D01*
G75*
G02*
X28234000Y-30249000I0J150000D01*
G01*
G37*
G36*
G01*
X28234000Y-31519000D02*
X28234000Y-31219000D01*
G75*
G02*
X28384000Y-31069000I150000J0D01*
G01*
X30134000Y-31069000D01*
G75*
G02*
X30284000Y-31219000I0J-150000D01*
G01*
X30284000Y-31519000D01*
G75*
G02*
X30134000Y-31669000I-150000J0D01*
G01*
X28384000Y-31669000D01*
G75*
G02*
X28234000Y-31519000I0J150000D01*
G01*
G37*
G36*
G01*
X37534000Y-31519000D02*
X37534000Y-31219000D01*
G75*
G02*
X37684000Y-31069000I150000J0D01*
G01*
X39434000Y-31069000D01*
G75*
G02*
X39584000Y-31219000I0J-150000D01*
G01*
X39584000Y-31519000D01*
G75*
G02*
X39434000Y-31669000I-150000J0D01*
G01*
X37684000Y-31669000D01*
G75*
G02*
X37534000Y-31519000I0J150000D01*
G01*
G37*
G36*
G01*
X37534000Y-30249000D02*
X37534000Y-29949000D01*
G75*
G02*
X37684000Y-29799000I150000J0D01*
G01*
X39434000Y-29799000D01*
G75*
G02*
X39584000Y-29949000I0J-150000D01*
G01*
X39584000Y-30249000D01*
G75*
G02*
X39434000Y-30399000I-150000J0D01*
G01*
X37684000Y-30399000D01*
G75*
G02*
X37534000Y-30249000I0J150000D01*
G01*
G37*
G36*
G01*
X37534000Y-28979000D02*
X37534000Y-28679000D01*
G75*
G02*
X37684000Y-28529000I150000J0D01*
G01*
X39434000Y-28529000D01*
G75*
G02*
X39584000Y-28679000I0J-150000D01*
G01*
X39584000Y-28979000D01*
G75*
G02*
X39434000Y-29129000I-150000J0D01*
G01*
X37684000Y-29129000D01*
G75*
G02*
X37534000Y-28979000I0J150000D01*
G01*
G37*
G36*
G01*
X37534000Y-27709000D02*
X37534000Y-27409000D01*
G75*
G02*
X37684000Y-27259000I150000J0D01*
G01*
X39434000Y-27259000D01*
G75*
G02*
X39584000Y-27409000I0J-150000D01*
G01*
X39584000Y-27709000D01*
G75*
G02*
X39434000Y-27859000I-150000J0D01*
G01*
X37684000Y-27859000D01*
G75*
G02*
X37534000Y-27709000I0J150000D01*
G01*
G37*
G36*
G01*
X37534000Y-26439000D02*
X37534000Y-26139000D01*
G75*
G02*
X37684000Y-25989000I150000J0D01*
G01*
X39434000Y-25989000D01*
G75*
G02*
X39584000Y-26139000I0J-150000D01*
G01*
X39584000Y-26439000D01*
G75*
G02*
X39434000Y-26589000I-150000J0D01*
G01*
X37684000Y-26589000D01*
G75*
G02*
X37534000Y-26439000I0J150000D01*
G01*
G37*
G36*
G01*
X37534000Y-25169000D02*
X37534000Y-24869000D01*
G75*
G02*
X37684000Y-24719000I150000J0D01*
G01*
X39434000Y-24719000D01*
G75*
G02*
X39584000Y-24869000I0J-150000D01*
G01*
X39584000Y-25169000D01*
G75*
G02*
X39434000Y-25319000I-150000J0D01*
G01*
X37684000Y-25319000D01*
G75*
G02*
X37534000Y-25169000I0J150000D01*
G01*
G37*
G36*
G01*
X37534000Y-23899000D02*
X37534000Y-23599000D01*
G75*
G02*
X37684000Y-23449000I150000J0D01*
G01*
X39434000Y-23449000D01*
G75*
G02*
X39584000Y-23599000I0J-150000D01*
G01*
X39584000Y-23899000D01*
G75*
G02*
X39434000Y-24049000I-150000J0D01*
G01*
X37684000Y-24049000D01*
G75*
G02*
X37534000Y-23899000I0J150000D01*
G01*
G37*
G36*
G01*
X37534000Y-22629000D02*
X37534000Y-22329000D01*
G75*
G02*
X37684000Y-22179000I150000J0D01*
G01*
X39434000Y-22179000D01*
G75*
G02*
X39584000Y-22329000I0J-150000D01*
G01*
X39584000Y-22629000D01*
G75*
G02*
X39434000Y-22779000I-150000J0D01*
G01*
X37684000Y-22779000D01*
G75*
G02*
X37534000Y-22629000I0J150000D01*
G01*
G37*
G36*
G01*
X37534000Y-21359000D02*
X37534000Y-21059000D01*
G75*
G02*
X37684000Y-20909000I150000J0D01*
G01*
X39434000Y-20909000D01*
G75*
G02*
X39584000Y-21059000I0J-150000D01*
G01*
X39584000Y-21359000D01*
G75*
G02*
X39434000Y-21509000I-150000J0D01*
G01*
X37684000Y-21509000D01*
G75*
G02*
X37534000Y-21359000I0J150000D01*
G01*
G37*
G36*
G01*
X37534000Y-20089000D02*
X37534000Y-19789000D01*
G75*
G02*
X37684000Y-19639000I150000J0D01*
G01*
X39434000Y-19639000D01*
G75*
G02*
X39584000Y-19789000I0J-150000D01*
G01*
X39584000Y-20089000D01*
G75*
G02*
X39434000Y-20239000I-150000J0D01*
G01*
X37684000Y-20239000D01*
G75*
G02*
X37534000Y-20089000I0J150000D01*
G01*
G37*
G36*
G01*
X122751000Y-20216000D02*
X122751000Y-19916000D01*
G75*
G02*
X122901000Y-19766000I150000J0D01*
G01*
X124651000Y-19766000D01*
G75*
G02*
X124801000Y-19916000I0J-150000D01*
G01*
X124801000Y-20216000D01*
G75*
G02*
X124651000Y-20366000I-150000J0D01*
G01*
X122901000Y-20366000D01*
G75*
G02*
X122751000Y-20216000I0J150000D01*
G01*
G37*
G36*
G01*
X122751000Y-21486000D02*
X122751000Y-21186000D01*
G75*
G02*
X122901000Y-21036000I150000J0D01*
G01*
X124651000Y-21036000D01*
G75*
G02*
X124801000Y-21186000I0J-150000D01*
G01*
X124801000Y-21486000D01*
G75*
G02*
X124651000Y-21636000I-150000J0D01*
G01*
X122901000Y-21636000D01*
G75*
G02*
X122751000Y-21486000I0J150000D01*
G01*
G37*
G36*
G01*
X122751000Y-22756000D02*
X122751000Y-22456000D01*
G75*
G02*
X122901000Y-22306000I150000J0D01*
G01*
X124651000Y-22306000D01*
G75*
G02*
X124801000Y-22456000I0J-150000D01*
G01*
X124801000Y-22756000D01*
G75*
G02*
X124651000Y-22906000I-150000J0D01*
G01*
X122901000Y-22906000D01*
G75*
G02*
X122751000Y-22756000I0J150000D01*
G01*
G37*
G36*
G01*
X122751000Y-24026000D02*
X122751000Y-23726000D01*
G75*
G02*
X122901000Y-23576000I150000J0D01*
G01*
X124651000Y-23576000D01*
G75*
G02*
X124801000Y-23726000I0J-150000D01*
G01*
X124801000Y-24026000D01*
G75*
G02*
X124651000Y-24176000I-150000J0D01*
G01*
X122901000Y-24176000D01*
G75*
G02*
X122751000Y-24026000I0J150000D01*
G01*
G37*
G36*
G01*
X122751000Y-25296000D02*
X122751000Y-24996000D01*
G75*
G02*
X122901000Y-24846000I150000J0D01*
G01*
X124651000Y-24846000D01*
G75*
G02*
X124801000Y-24996000I0J-150000D01*
G01*
X124801000Y-25296000D01*
G75*
G02*
X124651000Y-25446000I-150000J0D01*
G01*
X122901000Y-25446000D01*
G75*
G02*
X122751000Y-25296000I0J150000D01*
G01*
G37*
G36*
G01*
X122751000Y-26566000D02*
X122751000Y-26266000D01*
G75*
G02*
X122901000Y-26116000I150000J0D01*
G01*
X124651000Y-26116000D01*
G75*
G02*
X124801000Y-26266000I0J-150000D01*
G01*
X124801000Y-26566000D01*
G75*
G02*
X124651000Y-26716000I-150000J0D01*
G01*
X122901000Y-26716000D01*
G75*
G02*
X122751000Y-26566000I0J150000D01*
G01*
G37*
G36*
G01*
X122751000Y-27836000D02*
X122751000Y-27536000D01*
G75*
G02*
X122901000Y-27386000I150000J0D01*
G01*
X124651000Y-27386000D01*
G75*
G02*
X124801000Y-27536000I0J-150000D01*
G01*
X124801000Y-27836000D01*
G75*
G02*
X124651000Y-27986000I-150000J0D01*
G01*
X122901000Y-27986000D01*
G75*
G02*
X122751000Y-27836000I0J150000D01*
G01*
G37*
G36*
G01*
X122751000Y-29106000D02*
X122751000Y-28806000D01*
G75*
G02*
X122901000Y-28656000I150000J0D01*
G01*
X124651000Y-28656000D01*
G75*
G02*
X124801000Y-28806000I0J-150000D01*
G01*
X124801000Y-29106000D01*
G75*
G02*
X124651000Y-29256000I-150000J0D01*
G01*
X122901000Y-29256000D01*
G75*
G02*
X122751000Y-29106000I0J150000D01*
G01*
G37*
G36*
G01*
X122751000Y-30376000D02*
X122751000Y-30076000D01*
G75*
G02*
X122901000Y-29926000I150000J0D01*
G01*
X124651000Y-29926000D01*
G75*
G02*
X124801000Y-30076000I0J-150000D01*
G01*
X124801000Y-30376000D01*
G75*
G02*
X124651000Y-30526000I-150000J0D01*
G01*
X122901000Y-30526000D01*
G75*
G02*
X122751000Y-30376000I0J150000D01*
G01*
G37*
G36*
G01*
X122751000Y-31646000D02*
X122751000Y-31346000D01*
G75*
G02*
X122901000Y-31196000I150000J0D01*
G01*
X124651000Y-31196000D01*
G75*
G02*
X124801000Y-31346000I0J-150000D01*
G01*
X124801000Y-31646000D01*
G75*
G02*
X124651000Y-31796000I-150000J0D01*
G01*
X122901000Y-31796000D01*
G75*
G02*
X122751000Y-31646000I0J150000D01*
G01*
G37*
G36*
G01*
X113451000Y-31646000D02*
X113451000Y-31346000D01*
G75*
G02*
X113601000Y-31196000I150000J0D01*
G01*
X115351000Y-31196000D01*
G75*
G02*
X115501000Y-31346000I0J-150000D01*
G01*
X115501000Y-31646000D01*
G75*
G02*
X115351000Y-31796000I-150000J0D01*
G01*
X113601000Y-31796000D01*
G75*
G02*
X113451000Y-31646000I0J150000D01*
G01*
G37*
G36*
G01*
X113451000Y-30376000D02*
X113451000Y-30076000D01*
G75*
G02*
X113601000Y-29926000I150000J0D01*
G01*
X115351000Y-29926000D01*
G75*
G02*
X115501000Y-30076000I0J-150000D01*
G01*
X115501000Y-30376000D01*
G75*
G02*
X115351000Y-30526000I-150000J0D01*
G01*
X113601000Y-30526000D01*
G75*
G02*
X113451000Y-30376000I0J150000D01*
G01*
G37*
G36*
G01*
X113451000Y-29106000D02*
X113451000Y-28806000D01*
G75*
G02*
X113601000Y-28656000I150000J0D01*
G01*
X115351000Y-28656000D01*
G75*
G02*
X115501000Y-28806000I0J-150000D01*
G01*
X115501000Y-29106000D01*
G75*
G02*
X115351000Y-29256000I-150000J0D01*
G01*
X113601000Y-29256000D01*
G75*
G02*
X113451000Y-29106000I0J150000D01*
G01*
G37*
G36*
G01*
X113451000Y-27836000D02*
X113451000Y-27536000D01*
G75*
G02*
X113601000Y-27386000I150000J0D01*
G01*
X115351000Y-27386000D01*
G75*
G02*
X115501000Y-27536000I0J-150000D01*
G01*
X115501000Y-27836000D01*
G75*
G02*
X115351000Y-27986000I-150000J0D01*
G01*
X113601000Y-27986000D01*
G75*
G02*
X113451000Y-27836000I0J150000D01*
G01*
G37*
G36*
G01*
X113451000Y-26566000D02*
X113451000Y-26266000D01*
G75*
G02*
X113601000Y-26116000I150000J0D01*
G01*
X115351000Y-26116000D01*
G75*
G02*
X115501000Y-26266000I0J-150000D01*
G01*
X115501000Y-26566000D01*
G75*
G02*
X115351000Y-26716000I-150000J0D01*
G01*
X113601000Y-26716000D01*
G75*
G02*
X113451000Y-26566000I0J150000D01*
G01*
G37*
G36*
G01*
X113451000Y-25296000D02*
X113451000Y-24996000D01*
G75*
G02*
X113601000Y-24846000I150000J0D01*
G01*
X115351000Y-24846000D01*
G75*
G02*
X115501000Y-24996000I0J-150000D01*
G01*
X115501000Y-25296000D01*
G75*
G02*
X115351000Y-25446000I-150000J0D01*
G01*
X113601000Y-25446000D01*
G75*
G02*
X113451000Y-25296000I0J150000D01*
G01*
G37*
G36*
G01*
X113451000Y-24026000D02*
X113451000Y-23726000D01*
G75*
G02*
X113601000Y-23576000I150000J0D01*
G01*
X115351000Y-23576000D01*
G75*
G02*
X115501000Y-23726000I0J-150000D01*
G01*
X115501000Y-24026000D01*
G75*
G02*
X115351000Y-24176000I-150000J0D01*
G01*
X113601000Y-24176000D01*
G75*
G02*
X113451000Y-24026000I0J150000D01*
G01*
G37*
G36*
G01*
X113451000Y-22756000D02*
X113451000Y-22456000D01*
G75*
G02*
X113601000Y-22306000I150000J0D01*
G01*
X115351000Y-22306000D01*
G75*
G02*
X115501000Y-22456000I0J-150000D01*
G01*
X115501000Y-22756000D01*
G75*
G02*
X115351000Y-22906000I-150000J0D01*
G01*
X113601000Y-22906000D01*
G75*
G02*
X113451000Y-22756000I0J150000D01*
G01*
G37*
G36*
G01*
X113451000Y-21486000D02*
X113451000Y-21186000D01*
G75*
G02*
X113601000Y-21036000I150000J0D01*
G01*
X115351000Y-21036000D01*
G75*
G02*
X115501000Y-21186000I0J-150000D01*
G01*
X115501000Y-21486000D01*
G75*
G02*
X115351000Y-21636000I-150000J0D01*
G01*
X113601000Y-21636000D01*
G75*
G02*
X113451000Y-21486000I0J150000D01*
G01*
G37*
G36*
G01*
X113451000Y-20216000D02*
X113451000Y-19916000D01*
G75*
G02*
X113601000Y-19766000I150000J0D01*
G01*
X115351000Y-19766000D01*
G75*
G02*
X115501000Y-19916000I0J-150000D01*
G01*
X115501000Y-20216000D01*
G75*
G02*
X115351000Y-20366000I-150000J0D01*
G01*
X113601000Y-20366000D01*
G75*
G02*
X113451000Y-20216000I0J150000D01*
G01*
G37*
G36*
G01*
X165949000Y-80114000D02*
X165949000Y-80414000D01*
G75*
G02*
X165799000Y-80564000I-150000J0D01*
G01*
X164049000Y-80564000D01*
G75*
G02*
X163899000Y-80414000I0J150000D01*
G01*
X163899000Y-80114000D01*
G75*
G02*
X164049000Y-79964000I150000J0D01*
G01*
X165799000Y-79964000D01*
G75*
G02*
X165949000Y-80114000I0J-150000D01*
G01*
G37*
G36*
G01*
X165949000Y-78844000D02*
X165949000Y-79144000D01*
G75*
G02*
X165799000Y-79294000I-150000J0D01*
G01*
X164049000Y-79294000D01*
G75*
G02*
X163899000Y-79144000I0J150000D01*
G01*
X163899000Y-78844000D01*
G75*
G02*
X164049000Y-78694000I150000J0D01*
G01*
X165799000Y-78694000D01*
G75*
G02*
X165949000Y-78844000I0J-150000D01*
G01*
G37*
G36*
G01*
X165949000Y-77574000D02*
X165949000Y-77874000D01*
G75*
G02*
X165799000Y-78024000I-150000J0D01*
G01*
X164049000Y-78024000D01*
G75*
G02*
X163899000Y-77874000I0J150000D01*
G01*
X163899000Y-77574000D01*
G75*
G02*
X164049000Y-77424000I150000J0D01*
G01*
X165799000Y-77424000D01*
G75*
G02*
X165949000Y-77574000I0J-150000D01*
G01*
G37*
G36*
G01*
X165949000Y-76304000D02*
X165949000Y-76604000D01*
G75*
G02*
X165799000Y-76754000I-150000J0D01*
G01*
X164049000Y-76754000D01*
G75*
G02*
X163899000Y-76604000I0J150000D01*
G01*
X163899000Y-76304000D01*
G75*
G02*
X164049000Y-76154000I150000J0D01*
G01*
X165799000Y-76154000D01*
G75*
G02*
X165949000Y-76304000I0J-150000D01*
G01*
G37*
G36*
G01*
X165949000Y-75034000D02*
X165949000Y-75334000D01*
G75*
G02*
X165799000Y-75484000I-150000J0D01*
G01*
X164049000Y-75484000D01*
G75*
G02*
X163899000Y-75334000I0J150000D01*
G01*
X163899000Y-75034000D01*
G75*
G02*
X164049000Y-74884000I150000J0D01*
G01*
X165799000Y-74884000D01*
G75*
G02*
X165949000Y-75034000I0J-150000D01*
G01*
G37*
G36*
G01*
X165949000Y-73764000D02*
X165949000Y-74064000D01*
G75*
G02*
X165799000Y-74214000I-150000J0D01*
G01*
X164049000Y-74214000D01*
G75*
G02*
X163899000Y-74064000I0J150000D01*
G01*
X163899000Y-73764000D01*
G75*
G02*
X164049000Y-73614000I150000J0D01*
G01*
X165799000Y-73614000D01*
G75*
G02*
X165949000Y-73764000I0J-150000D01*
G01*
G37*
G36*
G01*
X165949000Y-72494000D02*
X165949000Y-72794000D01*
G75*
G02*
X165799000Y-72944000I-150000J0D01*
G01*
X164049000Y-72944000D01*
G75*
G02*
X163899000Y-72794000I0J150000D01*
G01*
X163899000Y-72494000D01*
G75*
G02*
X164049000Y-72344000I150000J0D01*
G01*
X165799000Y-72344000D01*
G75*
G02*
X165949000Y-72494000I0J-150000D01*
G01*
G37*
G36*
G01*
X165949000Y-71224000D02*
X165949000Y-71524000D01*
G75*
G02*
X165799000Y-71674000I-150000J0D01*
G01*
X164049000Y-71674000D01*
G75*
G02*
X163899000Y-71524000I0J150000D01*
G01*
X163899000Y-71224000D01*
G75*
G02*
X164049000Y-71074000I150000J0D01*
G01*
X165799000Y-71074000D01*
G75*
G02*
X165949000Y-71224000I0J-150000D01*
G01*
G37*
G36*
G01*
X165949000Y-69954000D02*
X165949000Y-70254000D01*
G75*
G02*
X165799000Y-70404000I-150000J0D01*
G01*
X164049000Y-70404000D01*
G75*
G02*
X163899000Y-70254000I0J150000D01*
G01*
X163899000Y-69954000D01*
G75*
G02*
X164049000Y-69804000I150000J0D01*
G01*
X165799000Y-69804000D01*
G75*
G02*
X165949000Y-69954000I0J-150000D01*
G01*
G37*
G36*
G01*
X165949000Y-68684000D02*
X165949000Y-68984000D01*
G75*
G02*
X165799000Y-69134000I-150000J0D01*
G01*
X164049000Y-69134000D01*
G75*
G02*
X163899000Y-68984000I0J150000D01*
G01*
X163899000Y-68684000D01*
G75*
G02*
X164049000Y-68534000I150000J0D01*
G01*
X165799000Y-68534000D01*
G75*
G02*
X165949000Y-68684000I0J-150000D01*
G01*
G37*
G36*
G01*
X156649000Y-68684000D02*
X156649000Y-68984000D01*
G75*
G02*
X156499000Y-69134000I-150000J0D01*
G01*
X154749000Y-69134000D01*
G75*
G02*
X154599000Y-68984000I0J150000D01*
G01*
X154599000Y-68684000D01*
G75*
G02*
X154749000Y-68534000I150000J0D01*
G01*
X156499000Y-68534000D01*
G75*
G02*
X156649000Y-68684000I0J-150000D01*
G01*
G37*
G36*
G01*
X156649000Y-69954000D02*
X156649000Y-70254000D01*
G75*
G02*
X156499000Y-70404000I-150000J0D01*
G01*
X154749000Y-70404000D01*
G75*
G02*
X154599000Y-70254000I0J150000D01*
G01*
X154599000Y-69954000D01*
G75*
G02*
X154749000Y-69804000I150000J0D01*
G01*
X156499000Y-69804000D01*
G75*
G02*
X156649000Y-69954000I0J-150000D01*
G01*
G37*
G36*
G01*
X156649000Y-71224000D02*
X156649000Y-71524000D01*
G75*
G02*
X156499000Y-71674000I-150000J0D01*
G01*
X154749000Y-71674000D01*
G75*
G02*
X154599000Y-71524000I0J150000D01*
G01*
X154599000Y-71224000D01*
G75*
G02*
X154749000Y-71074000I150000J0D01*
G01*
X156499000Y-71074000D01*
G75*
G02*
X156649000Y-71224000I0J-150000D01*
G01*
G37*
G36*
G01*
X156649000Y-72494000D02*
X156649000Y-72794000D01*
G75*
G02*
X156499000Y-72944000I-150000J0D01*
G01*
X154749000Y-72944000D01*
G75*
G02*
X154599000Y-72794000I0J150000D01*
G01*
X154599000Y-72494000D01*
G75*
G02*
X154749000Y-72344000I150000J0D01*
G01*
X156499000Y-72344000D01*
G75*
G02*
X156649000Y-72494000I0J-150000D01*
G01*
G37*
G36*
G01*
X156649000Y-73764000D02*
X156649000Y-74064000D01*
G75*
G02*
X156499000Y-74214000I-150000J0D01*
G01*
X154749000Y-74214000D01*
G75*
G02*
X154599000Y-74064000I0J150000D01*
G01*
X154599000Y-73764000D01*
G75*
G02*
X154749000Y-73614000I150000J0D01*
G01*
X156499000Y-73614000D01*
G75*
G02*
X156649000Y-73764000I0J-150000D01*
G01*
G37*
G36*
G01*
X156649000Y-75034000D02*
X156649000Y-75334000D01*
G75*
G02*
X156499000Y-75484000I-150000J0D01*
G01*
X154749000Y-75484000D01*
G75*
G02*
X154599000Y-75334000I0J150000D01*
G01*
X154599000Y-75034000D01*
G75*
G02*
X154749000Y-74884000I150000J0D01*
G01*
X156499000Y-74884000D01*
G75*
G02*
X156649000Y-75034000I0J-150000D01*
G01*
G37*
G36*
G01*
X156649000Y-76304000D02*
X156649000Y-76604000D01*
G75*
G02*
X156499000Y-76754000I-150000J0D01*
G01*
X154749000Y-76754000D01*
G75*
G02*
X154599000Y-76604000I0J150000D01*
G01*
X154599000Y-76304000D01*
G75*
G02*
X154749000Y-76154000I150000J0D01*
G01*
X156499000Y-76154000D01*
G75*
G02*
X156649000Y-76304000I0J-150000D01*
G01*
G37*
G36*
G01*
X156649000Y-77574000D02*
X156649000Y-77874000D01*
G75*
G02*
X156499000Y-78024000I-150000J0D01*
G01*
X154749000Y-78024000D01*
G75*
G02*
X154599000Y-77874000I0J150000D01*
G01*
X154599000Y-77574000D01*
G75*
G02*
X154749000Y-77424000I150000J0D01*
G01*
X156499000Y-77424000D01*
G75*
G02*
X156649000Y-77574000I0J-150000D01*
G01*
G37*
G36*
G01*
X156649000Y-78844000D02*
X156649000Y-79144000D01*
G75*
G02*
X156499000Y-79294000I-150000J0D01*
G01*
X154749000Y-79294000D01*
G75*
G02*
X154599000Y-79144000I0J150000D01*
G01*
X154599000Y-78844000D01*
G75*
G02*
X154749000Y-78694000I150000J0D01*
G01*
X156499000Y-78694000D01*
G75*
G02*
X156649000Y-78844000I0J-150000D01*
G01*
G37*
G36*
G01*
X156649000Y-80114000D02*
X156649000Y-80414000D01*
G75*
G02*
X156499000Y-80564000I-150000J0D01*
G01*
X154749000Y-80564000D01*
G75*
G02*
X154599000Y-80414000I0J150000D01*
G01*
X154599000Y-80114000D01*
G75*
G02*
X154749000Y-79964000I150000J0D01*
G01*
X156499000Y-79964000D01*
G75*
G02*
X156649000Y-80114000I0J-150000D01*
G01*
G37*
G36*
G01*
X131104000Y-25931000D02*
X131104000Y-25631000D01*
G75*
G02*
X131254000Y-25481000I150000J0D01*
G01*
X133004000Y-25481000D01*
G75*
G02*
X133154000Y-25631000I0J-150000D01*
G01*
X133154000Y-25931000D01*
G75*
G02*
X133004000Y-26081000I-150000J0D01*
G01*
X131254000Y-26081000D01*
G75*
G02*
X131104000Y-25931000I0J150000D01*
G01*
G37*
G36*
G01*
X131104000Y-27201000D02*
X131104000Y-26901000D01*
G75*
G02*
X131254000Y-26751000I150000J0D01*
G01*
X133004000Y-26751000D01*
G75*
G02*
X133154000Y-26901000I0J-150000D01*
G01*
X133154000Y-27201000D01*
G75*
G02*
X133004000Y-27351000I-150000J0D01*
G01*
X131254000Y-27351000D01*
G75*
G02*
X131104000Y-27201000I0J150000D01*
G01*
G37*
G36*
G01*
X131104000Y-28471000D02*
X131104000Y-28171000D01*
G75*
G02*
X131254000Y-28021000I150000J0D01*
G01*
X133004000Y-28021000D01*
G75*
G02*
X133154000Y-28171000I0J-150000D01*
G01*
X133154000Y-28471000D01*
G75*
G02*
X133004000Y-28621000I-150000J0D01*
G01*
X131254000Y-28621000D01*
G75*
G02*
X131104000Y-28471000I0J150000D01*
G01*
G37*
G36*
G01*
X131104000Y-29741000D02*
X131104000Y-29441000D01*
G75*
G02*
X131254000Y-29291000I150000J0D01*
G01*
X133004000Y-29291000D01*
G75*
G02*
X133154000Y-29441000I0J-150000D01*
G01*
X133154000Y-29741000D01*
G75*
G02*
X133004000Y-29891000I-150000J0D01*
G01*
X131254000Y-29891000D01*
G75*
G02*
X131104000Y-29741000I0J150000D01*
G01*
G37*
G36*
G01*
X131104000Y-31011000D02*
X131104000Y-30711000D01*
G75*
G02*
X131254000Y-30561000I150000J0D01*
G01*
X133004000Y-30561000D01*
G75*
G02*
X133154000Y-30711000I0J-150000D01*
G01*
X133154000Y-31011000D01*
G75*
G02*
X133004000Y-31161000I-150000J0D01*
G01*
X131254000Y-31161000D01*
G75*
G02*
X131104000Y-31011000I0J150000D01*
G01*
G37*
G36*
G01*
X131104000Y-32281000D02*
X131104000Y-31981000D01*
G75*
G02*
X131254000Y-31831000I150000J0D01*
G01*
X133004000Y-31831000D01*
G75*
G02*
X133154000Y-31981000I0J-150000D01*
G01*
X133154000Y-32281000D01*
G75*
G02*
X133004000Y-32431000I-150000J0D01*
G01*
X131254000Y-32431000D01*
G75*
G02*
X131104000Y-32281000I0J150000D01*
G01*
G37*
G36*
G01*
X131104000Y-33551000D02*
X131104000Y-33251000D01*
G75*
G02*
X131254000Y-33101000I150000J0D01*
G01*
X133004000Y-33101000D01*
G75*
G02*
X133154000Y-33251000I0J-150000D01*
G01*
X133154000Y-33551000D01*
G75*
G02*
X133004000Y-33701000I-150000J0D01*
G01*
X131254000Y-33701000D01*
G75*
G02*
X131104000Y-33551000I0J150000D01*
G01*
G37*
G36*
G01*
X131104000Y-34821000D02*
X131104000Y-34521000D01*
G75*
G02*
X131254000Y-34371000I150000J0D01*
G01*
X133004000Y-34371000D01*
G75*
G02*
X133154000Y-34521000I0J-150000D01*
G01*
X133154000Y-34821000D01*
G75*
G02*
X133004000Y-34971000I-150000J0D01*
G01*
X131254000Y-34971000D01*
G75*
G02*
X131104000Y-34821000I0J150000D01*
G01*
G37*
G36*
G01*
X131104000Y-36091000D02*
X131104000Y-35791000D01*
G75*
G02*
X131254000Y-35641000I150000J0D01*
G01*
X133004000Y-35641000D01*
G75*
G02*
X133154000Y-35791000I0J-150000D01*
G01*
X133154000Y-36091000D01*
G75*
G02*
X133004000Y-36241000I-150000J0D01*
G01*
X131254000Y-36241000D01*
G75*
G02*
X131104000Y-36091000I0J150000D01*
G01*
G37*
G36*
G01*
X131104000Y-37361000D02*
X131104000Y-37061000D01*
G75*
G02*
X131254000Y-36911000I150000J0D01*
G01*
X133004000Y-36911000D01*
G75*
G02*
X133154000Y-37061000I0J-150000D01*
G01*
X133154000Y-37361000D01*
G75*
G02*
X133004000Y-37511000I-150000J0D01*
G01*
X131254000Y-37511000D01*
G75*
G02*
X131104000Y-37361000I0J150000D01*
G01*
G37*
G36*
G01*
X140404000Y-37361000D02*
X140404000Y-37061000D01*
G75*
G02*
X140554000Y-36911000I150000J0D01*
G01*
X142304000Y-36911000D01*
G75*
G02*
X142454000Y-37061000I0J-150000D01*
G01*
X142454000Y-37361000D01*
G75*
G02*
X142304000Y-37511000I-150000J0D01*
G01*
X140554000Y-37511000D01*
G75*
G02*
X140404000Y-37361000I0J150000D01*
G01*
G37*
G36*
G01*
X140404000Y-36091000D02*
X140404000Y-35791000D01*
G75*
G02*
X140554000Y-35641000I150000J0D01*
G01*
X142304000Y-35641000D01*
G75*
G02*
X142454000Y-35791000I0J-150000D01*
G01*
X142454000Y-36091000D01*
G75*
G02*
X142304000Y-36241000I-150000J0D01*
G01*
X140554000Y-36241000D01*
G75*
G02*
X140404000Y-36091000I0J150000D01*
G01*
G37*
G36*
G01*
X140404000Y-34821000D02*
X140404000Y-34521000D01*
G75*
G02*
X140554000Y-34371000I150000J0D01*
G01*
X142304000Y-34371000D01*
G75*
G02*
X142454000Y-34521000I0J-150000D01*
G01*
X142454000Y-34821000D01*
G75*
G02*
X142304000Y-34971000I-150000J0D01*
G01*
X140554000Y-34971000D01*
G75*
G02*
X140404000Y-34821000I0J150000D01*
G01*
G37*
G36*
G01*
X140404000Y-33551000D02*
X140404000Y-33251000D01*
G75*
G02*
X140554000Y-33101000I150000J0D01*
G01*
X142304000Y-33101000D01*
G75*
G02*
X142454000Y-33251000I0J-150000D01*
G01*
X142454000Y-33551000D01*
G75*
G02*
X142304000Y-33701000I-150000J0D01*
G01*
X140554000Y-33701000D01*
G75*
G02*
X140404000Y-33551000I0J150000D01*
G01*
G37*
G36*
G01*
X140404000Y-32281000D02*
X140404000Y-31981000D01*
G75*
G02*
X140554000Y-31831000I150000J0D01*
G01*
X142304000Y-31831000D01*
G75*
G02*
X142454000Y-31981000I0J-150000D01*
G01*
X142454000Y-32281000D01*
G75*
G02*
X142304000Y-32431000I-150000J0D01*
G01*
X140554000Y-32431000D01*
G75*
G02*
X140404000Y-32281000I0J150000D01*
G01*
G37*
G36*
G01*
X140404000Y-31011000D02*
X140404000Y-30711000D01*
G75*
G02*
X140554000Y-30561000I150000J0D01*
G01*
X142304000Y-30561000D01*
G75*
G02*
X142454000Y-30711000I0J-150000D01*
G01*
X142454000Y-31011000D01*
G75*
G02*
X142304000Y-31161000I-150000J0D01*
G01*
X140554000Y-31161000D01*
G75*
G02*
X140404000Y-31011000I0J150000D01*
G01*
G37*
G36*
G01*
X140404000Y-29741000D02*
X140404000Y-29441000D01*
G75*
G02*
X140554000Y-29291000I150000J0D01*
G01*
X142304000Y-29291000D01*
G75*
G02*
X142454000Y-29441000I0J-150000D01*
G01*
X142454000Y-29741000D01*
G75*
G02*
X142304000Y-29891000I-150000J0D01*
G01*
X140554000Y-29891000D01*
G75*
G02*
X140404000Y-29741000I0J150000D01*
G01*
G37*
G36*
G01*
X140404000Y-28471000D02*
X140404000Y-28171000D01*
G75*
G02*
X140554000Y-28021000I150000J0D01*
G01*
X142304000Y-28021000D01*
G75*
G02*
X142454000Y-28171000I0J-150000D01*
G01*
X142454000Y-28471000D01*
G75*
G02*
X142304000Y-28621000I-150000J0D01*
G01*
X140554000Y-28621000D01*
G75*
G02*
X140404000Y-28471000I0J150000D01*
G01*
G37*
G36*
G01*
X140404000Y-27201000D02*
X140404000Y-26901000D01*
G75*
G02*
X140554000Y-26751000I150000J0D01*
G01*
X142304000Y-26751000D01*
G75*
G02*
X142454000Y-26901000I0J-150000D01*
G01*
X142454000Y-27201000D01*
G75*
G02*
X142304000Y-27351000I-150000J0D01*
G01*
X140554000Y-27351000D01*
G75*
G02*
X140404000Y-27201000I0J150000D01*
G01*
G37*
G36*
G01*
X140404000Y-25931000D02*
X140404000Y-25631000D01*
G75*
G02*
X140554000Y-25481000I150000J0D01*
G01*
X142304000Y-25481000D01*
G75*
G02*
X142454000Y-25631000I0J-150000D01*
G01*
X142454000Y-25931000D01*
G75*
G02*
X142304000Y-26081000I-150000J0D01*
G01*
X140554000Y-26081000D01*
G75*
G02*
X140404000Y-25931000I0J150000D01*
G01*
G37*
G36*
G01*
X122134000Y-79606000D02*
X122134000Y-79906000D01*
G75*
G02*
X121984000Y-80056000I-150000J0D01*
G01*
X120234000Y-80056000D01*
G75*
G02*
X120084000Y-79906000I0J150000D01*
G01*
X120084000Y-79606000D01*
G75*
G02*
X120234000Y-79456000I150000J0D01*
G01*
X121984000Y-79456000D01*
G75*
G02*
X122134000Y-79606000I0J-150000D01*
G01*
G37*
G36*
G01*
X122134000Y-78336000D02*
X122134000Y-78636000D01*
G75*
G02*
X121984000Y-78786000I-150000J0D01*
G01*
X120234000Y-78786000D01*
G75*
G02*
X120084000Y-78636000I0J150000D01*
G01*
X120084000Y-78336000D01*
G75*
G02*
X120234000Y-78186000I150000J0D01*
G01*
X121984000Y-78186000D01*
G75*
G02*
X122134000Y-78336000I0J-150000D01*
G01*
G37*
G36*
G01*
X122134000Y-77066000D02*
X122134000Y-77366000D01*
G75*
G02*
X121984000Y-77516000I-150000J0D01*
G01*
X120234000Y-77516000D01*
G75*
G02*
X120084000Y-77366000I0J150000D01*
G01*
X120084000Y-77066000D01*
G75*
G02*
X120234000Y-76916000I150000J0D01*
G01*
X121984000Y-76916000D01*
G75*
G02*
X122134000Y-77066000I0J-150000D01*
G01*
G37*
G36*
G01*
X122134000Y-75796000D02*
X122134000Y-76096000D01*
G75*
G02*
X121984000Y-76246000I-150000J0D01*
G01*
X120234000Y-76246000D01*
G75*
G02*
X120084000Y-76096000I0J150000D01*
G01*
X120084000Y-75796000D01*
G75*
G02*
X120234000Y-75646000I150000J0D01*
G01*
X121984000Y-75646000D01*
G75*
G02*
X122134000Y-75796000I0J-150000D01*
G01*
G37*
G36*
G01*
X122134000Y-74526000D02*
X122134000Y-74826000D01*
G75*
G02*
X121984000Y-74976000I-150000J0D01*
G01*
X120234000Y-74976000D01*
G75*
G02*
X120084000Y-74826000I0J150000D01*
G01*
X120084000Y-74526000D01*
G75*
G02*
X120234000Y-74376000I150000J0D01*
G01*
X121984000Y-74376000D01*
G75*
G02*
X122134000Y-74526000I0J-150000D01*
G01*
G37*
G36*
G01*
X122134000Y-73256000D02*
X122134000Y-73556000D01*
G75*
G02*
X121984000Y-73706000I-150000J0D01*
G01*
X120234000Y-73706000D01*
G75*
G02*
X120084000Y-73556000I0J150000D01*
G01*
X120084000Y-73256000D01*
G75*
G02*
X120234000Y-73106000I150000J0D01*
G01*
X121984000Y-73106000D01*
G75*
G02*
X122134000Y-73256000I0J-150000D01*
G01*
G37*
G36*
G01*
X122134000Y-71986000D02*
X122134000Y-72286000D01*
G75*
G02*
X121984000Y-72436000I-150000J0D01*
G01*
X120234000Y-72436000D01*
G75*
G02*
X120084000Y-72286000I0J150000D01*
G01*
X120084000Y-71986000D01*
G75*
G02*
X120234000Y-71836000I150000J0D01*
G01*
X121984000Y-71836000D01*
G75*
G02*
X122134000Y-71986000I0J-150000D01*
G01*
G37*
G36*
G01*
X122134000Y-70716000D02*
X122134000Y-71016000D01*
G75*
G02*
X121984000Y-71166000I-150000J0D01*
G01*
X120234000Y-71166000D01*
G75*
G02*
X120084000Y-71016000I0J150000D01*
G01*
X120084000Y-70716000D01*
G75*
G02*
X120234000Y-70566000I150000J0D01*
G01*
X121984000Y-70566000D01*
G75*
G02*
X122134000Y-70716000I0J-150000D01*
G01*
G37*
G36*
G01*
X122134000Y-69446000D02*
X122134000Y-69746000D01*
G75*
G02*
X121984000Y-69896000I-150000J0D01*
G01*
X120234000Y-69896000D01*
G75*
G02*
X120084000Y-69746000I0J150000D01*
G01*
X120084000Y-69446000D01*
G75*
G02*
X120234000Y-69296000I150000J0D01*
G01*
X121984000Y-69296000D01*
G75*
G02*
X122134000Y-69446000I0J-150000D01*
G01*
G37*
G36*
G01*
X122134000Y-68176000D02*
X122134000Y-68476000D01*
G75*
G02*
X121984000Y-68626000I-150000J0D01*
G01*
X120234000Y-68626000D01*
G75*
G02*
X120084000Y-68476000I0J150000D01*
G01*
X120084000Y-68176000D01*
G75*
G02*
X120234000Y-68026000I150000J0D01*
G01*
X121984000Y-68026000D01*
G75*
G02*
X122134000Y-68176000I0J-150000D01*
G01*
G37*
G36*
G01*
X112834000Y-68176000D02*
X112834000Y-68476000D01*
G75*
G02*
X112684000Y-68626000I-150000J0D01*
G01*
X110934000Y-68626000D01*
G75*
G02*
X110784000Y-68476000I0J150000D01*
G01*
X110784000Y-68176000D01*
G75*
G02*
X110934000Y-68026000I150000J0D01*
G01*
X112684000Y-68026000D01*
G75*
G02*
X112834000Y-68176000I0J-150000D01*
G01*
G37*
G36*
G01*
X112834000Y-69446000D02*
X112834000Y-69746000D01*
G75*
G02*
X112684000Y-69896000I-150000J0D01*
G01*
X110934000Y-69896000D01*
G75*
G02*
X110784000Y-69746000I0J150000D01*
G01*
X110784000Y-69446000D01*
G75*
G02*
X110934000Y-69296000I150000J0D01*
G01*
X112684000Y-69296000D01*
G75*
G02*
X112834000Y-69446000I0J-150000D01*
G01*
G37*
G36*
G01*
X112834000Y-70716000D02*
X112834000Y-71016000D01*
G75*
G02*
X112684000Y-71166000I-150000J0D01*
G01*
X110934000Y-71166000D01*
G75*
G02*
X110784000Y-71016000I0J150000D01*
G01*
X110784000Y-70716000D01*
G75*
G02*
X110934000Y-70566000I150000J0D01*
G01*
X112684000Y-70566000D01*
G75*
G02*
X112834000Y-70716000I0J-150000D01*
G01*
G37*
G36*
G01*
X112834000Y-71986000D02*
X112834000Y-72286000D01*
G75*
G02*
X112684000Y-72436000I-150000J0D01*
G01*
X110934000Y-72436000D01*
G75*
G02*
X110784000Y-72286000I0J150000D01*
G01*
X110784000Y-71986000D01*
G75*
G02*
X110934000Y-71836000I150000J0D01*
G01*
X112684000Y-71836000D01*
G75*
G02*
X112834000Y-71986000I0J-150000D01*
G01*
G37*
G36*
G01*
X112834000Y-73256000D02*
X112834000Y-73556000D01*
G75*
G02*
X112684000Y-73706000I-150000J0D01*
G01*
X110934000Y-73706000D01*
G75*
G02*
X110784000Y-73556000I0J150000D01*
G01*
X110784000Y-73256000D01*
G75*
G02*
X110934000Y-73106000I150000J0D01*
G01*
X112684000Y-73106000D01*
G75*
G02*
X112834000Y-73256000I0J-150000D01*
G01*
G37*
G36*
G01*
X112834000Y-74526000D02*
X112834000Y-74826000D01*
G75*
G02*
X112684000Y-74976000I-150000J0D01*
G01*
X110934000Y-74976000D01*
G75*
G02*
X110784000Y-74826000I0J150000D01*
G01*
X110784000Y-74526000D01*
G75*
G02*
X110934000Y-74376000I150000J0D01*
G01*
X112684000Y-74376000D01*
G75*
G02*
X112834000Y-74526000I0J-150000D01*
G01*
G37*
G36*
G01*
X112834000Y-75796000D02*
X112834000Y-76096000D01*
G75*
G02*
X112684000Y-76246000I-150000J0D01*
G01*
X110934000Y-76246000D01*
G75*
G02*
X110784000Y-76096000I0J150000D01*
G01*
X110784000Y-75796000D01*
G75*
G02*
X110934000Y-75646000I150000J0D01*
G01*
X112684000Y-75646000D01*
G75*
G02*
X112834000Y-75796000I0J-150000D01*
G01*
G37*
G36*
G01*
X112834000Y-77066000D02*
X112834000Y-77366000D01*
G75*
G02*
X112684000Y-77516000I-150000J0D01*
G01*
X110934000Y-77516000D01*
G75*
G02*
X110784000Y-77366000I0J150000D01*
G01*
X110784000Y-77066000D01*
G75*
G02*
X110934000Y-76916000I150000J0D01*
G01*
X112684000Y-76916000D01*
G75*
G02*
X112834000Y-77066000I0J-150000D01*
G01*
G37*
G36*
G01*
X112834000Y-78336000D02*
X112834000Y-78636000D01*
G75*
G02*
X112684000Y-78786000I-150000J0D01*
G01*
X110934000Y-78786000D01*
G75*
G02*
X110784000Y-78636000I0J150000D01*
G01*
X110784000Y-78336000D01*
G75*
G02*
X110934000Y-78186000I150000J0D01*
G01*
X112684000Y-78186000D01*
G75*
G02*
X112834000Y-78336000I0J-150000D01*
G01*
G37*
G36*
G01*
X112834000Y-79606000D02*
X112834000Y-79906000D01*
G75*
G02*
X112684000Y-80056000I-150000J0D01*
G01*
X110934000Y-80056000D01*
G75*
G02*
X110784000Y-79906000I0J150000D01*
G01*
X110784000Y-79606000D01*
G75*
G02*
X110934000Y-79456000I150000J0D01*
G01*
X112684000Y-79456000D01*
G75*
G02*
X112834000Y-79606000I0J-150000D01*
G01*
G37*
G36*
G01*
X136075000Y-79860000D02*
X136075000Y-80160000D01*
G75*
G02*
X135925000Y-80310000I-150000J0D01*
G01*
X134175000Y-80310000D01*
G75*
G02*
X134025000Y-80160000I0J150000D01*
G01*
X134025000Y-79860000D01*
G75*
G02*
X134175000Y-79710000I150000J0D01*
G01*
X135925000Y-79710000D01*
G75*
G02*
X136075000Y-79860000I0J-150000D01*
G01*
G37*
G36*
G01*
X136075000Y-78590000D02*
X136075000Y-78890000D01*
G75*
G02*
X135925000Y-79040000I-150000J0D01*
G01*
X134175000Y-79040000D01*
G75*
G02*
X134025000Y-78890000I0J150000D01*
G01*
X134025000Y-78590000D01*
G75*
G02*
X134175000Y-78440000I150000J0D01*
G01*
X135925000Y-78440000D01*
G75*
G02*
X136075000Y-78590000I0J-150000D01*
G01*
G37*
G36*
G01*
X136075000Y-77320000D02*
X136075000Y-77620000D01*
G75*
G02*
X135925000Y-77770000I-150000J0D01*
G01*
X134175000Y-77770000D01*
G75*
G02*
X134025000Y-77620000I0J150000D01*
G01*
X134025000Y-77320000D01*
G75*
G02*
X134175000Y-77170000I150000J0D01*
G01*
X135925000Y-77170000D01*
G75*
G02*
X136075000Y-77320000I0J-150000D01*
G01*
G37*
G36*
G01*
X136075000Y-76050000D02*
X136075000Y-76350000D01*
G75*
G02*
X135925000Y-76500000I-150000J0D01*
G01*
X134175000Y-76500000D01*
G75*
G02*
X134025000Y-76350000I0J150000D01*
G01*
X134025000Y-76050000D01*
G75*
G02*
X134175000Y-75900000I150000J0D01*
G01*
X135925000Y-75900000D01*
G75*
G02*
X136075000Y-76050000I0J-150000D01*
G01*
G37*
G36*
G01*
X136075000Y-74780000D02*
X136075000Y-75080000D01*
G75*
G02*
X135925000Y-75230000I-150000J0D01*
G01*
X134175000Y-75230000D01*
G75*
G02*
X134025000Y-75080000I0J150000D01*
G01*
X134025000Y-74780000D01*
G75*
G02*
X134175000Y-74630000I150000J0D01*
G01*
X135925000Y-74630000D01*
G75*
G02*
X136075000Y-74780000I0J-150000D01*
G01*
G37*
G36*
G01*
X136075000Y-73510000D02*
X136075000Y-73810000D01*
G75*
G02*
X135925000Y-73960000I-150000J0D01*
G01*
X134175000Y-73960000D01*
G75*
G02*
X134025000Y-73810000I0J150000D01*
G01*
X134025000Y-73510000D01*
G75*
G02*
X134175000Y-73360000I150000J0D01*
G01*
X135925000Y-73360000D01*
G75*
G02*
X136075000Y-73510000I0J-150000D01*
G01*
G37*
G36*
G01*
X136075000Y-72240000D02*
X136075000Y-72540000D01*
G75*
G02*
X135925000Y-72690000I-150000J0D01*
G01*
X134175000Y-72690000D01*
G75*
G02*
X134025000Y-72540000I0J150000D01*
G01*
X134025000Y-72240000D01*
G75*
G02*
X134175000Y-72090000I150000J0D01*
G01*
X135925000Y-72090000D01*
G75*
G02*
X136075000Y-72240000I0J-150000D01*
G01*
G37*
G36*
G01*
X136075000Y-70970000D02*
X136075000Y-71270000D01*
G75*
G02*
X135925000Y-71420000I-150000J0D01*
G01*
X134175000Y-71420000D01*
G75*
G02*
X134025000Y-71270000I0J150000D01*
G01*
X134025000Y-70970000D01*
G75*
G02*
X134175000Y-70820000I150000J0D01*
G01*
X135925000Y-70820000D01*
G75*
G02*
X136075000Y-70970000I0J-150000D01*
G01*
G37*
G36*
G01*
X136075000Y-69700000D02*
X136075000Y-70000000D01*
G75*
G02*
X135925000Y-70150000I-150000J0D01*
G01*
X134175000Y-70150000D01*
G75*
G02*
X134025000Y-70000000I0J150000D01*
G01*
X134025000Y-69700000D01*
G75*
G02*
X134175000Y-69550000I150000J0D01*
G01*
X135925000Y-69550000D01*
G75*
G02*
X136075000Y-69700000I0J-150000D01*
G01*
G37*
G36*
G01*
X136075000Y-68430000D02*
X136075000Y-68730000D01*
G75*
G02*
X135925000Y-68880000I-150000J0D01*
G01*
X134175000Y-68880000D01*
G75*
G02*
X134025000Y-68730000I0J150000D01*
G01*
X134025000Y-68430000D01*
G75*
G02*
X134175000Y-68280000I150000J0D01*
G01*
X135925000Y-68280000D01*
G75*
G02*
X136075000Y-68430000I0J-150000D01*
G01*
G37*
G36*
G01*
X145375000Y-68430000D02*
X145375000Y-68730000D01*
G75*
G02*
X145225000Y-68880000I-150000J0D01*
G01*
X143475000Y-68880000D01*
G75*
G02*
X143325000Y-68730000I0J150000D01*
G01*
X143325000Y-68430000D01*
G75*
G02*
X143475000Y-68280000I150000J0D01*
G01*
X145225000Y-68280000D01*
G75*
G02*
X145375000Y-68430000I0J-150000D01*
G01*
G37*
G36*
G01*
X145375000Y-69700000D02*
X145375000Y-70000000D01*
G75*
G02*
X145225000Y-70150000I-150000J0D01*
G01*
X143475000Y-70150000D01*
G75*
G02*
X143325000Y-70000000I0J150000D01*
G01*
X143325000Y-69700000D01*
G75*
G02*
X143475000Y-69550000I150000J0D01*
G01*
X145225000Y-69550000D01*
G75*
G02*
X145375000Y-69700000I0J-150000D01*
G01*
G37*
G36*
G01*
X145375000Y-70970000D02*
X145375000Y-71270000D01*
G75*
G02*
X145225000Y-71420000I-150000J0D01*
G01*
X143475000Y-71420000D01*
G75*
G02*
X143325000Y-71270000I0J150000D01*
G01*
X143325000Y-70970000D01*
G75*
G02*
X143475000Y-70820000I150000J0D01*
G01*
X145225000Y-70820000D01*
G75*
G02*
X145375000Y-70970000I0J-150000D01*
G01*
G37*
G36*
G01*
X145375000Y-72240000D02*
X145375000Y-72540000D01*
G75*
G02*
X145225000Y-72690000I-150000J0D01*
G01*
X143475000Y-72690000D01*
G75*
G02*
X143325000Y-72540000I0J150000D01*
G01*
X143325000Y-72240000D01*
G75*
G02*
X143475000Y-72090000I150000J0D01*
G01*
X145225000Y-72090000D01*
G75*
G02*
X145375000Y-72240000I0J-150000D01*
G01*
G37*
G36*
G01*
X145375000Y-73510000D02*
X145375000Y-73810000D01*
G75*
G02*
X145225000Y-73960000I-150000J0D01*
G01*
X143475000Y-73960000D01*
G75*
G02*
X143325000Y-73810000I0J150000D01*
G01*
X143325000Y-73510000D01*
G75*
G02*
X143475000Y-73360000I150000J0D01*
G01*
X145225000Y-73360000D01*
G75*
G02*
X145375000Y-73510000I0J-150000D01*
G01*
G37*
G36*
G01*
X145375000Y-74780000D02*
X145375000Y-75080000D01*
G75*
G02*
X145225000Y-75230000I-150000J0D01*
G01*
X143475000Y-75230000D01*
G75*
G02*
X143325000Y-75080000I0J150000D01*
G01*
X143325000Y-74780000D01*
G75*
G02*
X143475000Y-74630000I150000J0D01*
G01*
X145225000Y-74630000D01*
G75*
G02*
X145375000Y-74780000I0J-150000D01*
G01*
G37*
G36*
G01*
X145375000Y-76050000D02*
X145375000Y-76350000D01*
G75*
G02*
X145225000Y-76500000I-150000J0D01*
G01*
X143475000Y-76500000D01*
G75*
G02*
X143325000Y-76350000I0J150000D01*
G01*
X143325000Y-76050000D01*
G75*
G02*
X143475000Y-75900000I150000J0D01*
G01*
X145225000Y-75900000D01*
G75*
G02*
X145375000Y-76050000I0J-150000D01*
G01*
G37*
G36*
G01*
X145375000Y-77320000D02*
X145375000Y-77620000D01*
G75*
G02*
X145225000Y-77770000I-150000J0D01*
G01*
X143475000Y-77770000D01*
G75*
G02*
X143325000Y-77620000I0J150000D01*
G01*
X143325000Y-77320000D01*
G75*
G02*
X143475000Y-77170000I150000J0D01*
G01*
X145225000Y-77170000D01*
G75*
G02*
X145375000Y-77320000I0J-150000D01*
G01*
G37*
G36*
G01*
X145375000Y-78590000D02*
X145375000Y-78890000D01*
G75*
G02*
X145225000Y-79040000I-150000J0D01*
G01*
X143475000Y-79040000D01*
G75*
G02*
X143325000Y-78890000I0J150000D01*
G01*
X143325000Y-78590000D01*
G75*
G02*
X143475000Y-78440000I150000J0D01*
G01*
X145225000Y-78440000D01*
G75*
G02*
X145375000Y-78590000I0J-150000D01*
G01*
G37*
G36*
G01*
X145375000Y-79860000D02*
X145375000Y-80160000D01*
G75*
G02*
X145225000Y-80310000I-150000J0D01*
G01*
X143475000Y-80310000D01*
G75*
G02*
X143325000Y-80160000I0J150000D01*
G01*
X143325000Y-79860000D01*
G75*
G02*
X143475000Y-79710000I150000J0D01*
G01*
X145225000Y-79710000D01*
G75*
G02*
X145375000Y-79860000I0J-150000D01*
G01*
G37*
G36*
G01*
X159835000Y-20343000D02*
X159835000Y-20043000D01*
G75*
G02*
X159985000Y-19893000I150000J0D01*
G01*
X161735000Y-19893000D01*
G75*
G02*
X161885000Y-20043000I0J-150000D01*
G01*
X161885000Y-20343000D01*
G75*
G02*
X161735000Y-20493000I-150000J0D01*
G01*
X159985000Y-20493000D01*
G75*
G02*
X159835000Y-20343000I0J150000D01*
G01*
G37*
G36*
G01*
X159835000Y-21613000D02*
X159835000Y-21313000D01*
G75*
G02*
X159985000Y-21163000I150000J0D01*
G01*
X161735000Y-21163000D01*
G75*
G02*
X161885000Y-21313000I0J-150000D01*
G01*
X161885000Y-21613000D01*
G75*
G02*
X161735000Y-21763000I-150000J0D01*
G01*
X159985000Y-21763000D01*
G75*
G02*
X159835000Y-21613000I0J150000D01*
G01*
G37*
G36*
G01*
X159835000Y-22883000D02*
X159835000Y-22583000D01*
G75*
G02*
X159985000Y-22433000I150000J0D01*
G01*
X161735000Y-22433000D01*
G75*
G02*
X161885000Y-22583000I0J-150000D01*
G01*
X161885000Y-22883000D01*
G75*
G02*
X161735000Y-23033000I-150000J0D01*
G01*
X159985000Y-23033000D01*
G75*
G02*
X159835000Y-22883000I0J150000D01*
G01*
G37*
G36*
G01*
X159835000Y-24153000D02*
X159835000Y-23853000D01*
G75*
G02*
X159985000Y-23703000I150000J0D01*
G01*
X161735000Y-23703000D01*
G75*
G02*
X161885000Y-23853000I0J-150000D01*
G01*
X161885000Y-24153000D01*
G75*
G02*
X161735000Y-24303000I-150000J0D01*
G01*
X159985000Y-24303000D01*
G75*
G02*
X159835000Y-24153000I0J150000D01*
G01*
G37*
G36*
G01*
X159835000Y-25423000D02*
X159835000Y-25123000D01*
G75*
G02*
X159985000Y-24973000I150000J0D01*
G01*
X161735000Y-24973000D01*
G75*
G02*
X161885000Y-25123000I0J-150000D01*
G01*
X161885000Y-25423000D01*
G75*
G02*
X161735000Y-25573000I-150000J0D01*
G01*
X159985000Y-25573000D01*
G75*
G02*
X159835000Y-25423000I0J150000D01*
G01*
G37*
G36*
G01*
X159835000Y-26693000D02*
X159835000Y-26393000D01*
G75*
G02*
X159985000Y-26243000I150000J0D01*
G01*
X161735000Y-26243000D01*
G75*
G02*
X161885000Y-26393000I0J-150000D01*
G01*
X161885000Y-26693000D01*
G75*
G02*
X161735000Y-26843000I-150000J0D01*
G01*
X159985000Y-26843000D01*
G75*
G02*
X159835000Y-26693000I0J150000D01*
G01*
G37*
G36*
G01*
X159835000Y-27963000D02*
X159835000Y-27663000D01*
G75*
G02*
X159985000Y-27513000I150000J0D01*
G01*
X161735000Y-27513000D01*
G75*
G02*
X161885000Y-27663000I0J-150000D01*
G01*
X161885000Y-27963000D01*
G75*
G02*
X161735000Y-28113000I-150000J0D01*
G01*
X159985000Y-28113000D01*
G75*
G02*
X159835000Y-27963000I0J150000D01*
G01*
G37*
G36*
G01*
X159835000Y-29233000D02*
X159835000Y-28933000D01*
G75*
G02*
X159985000Y-28783000I150000J0D01*
G01*
X161735000Y-28783000D01*
G75*
G02*
X161885000Y-28933000I0J-150000D01*
G01*
X161885000Y-29233000D01*
G75*
G02*
X161735000Y-29383000I-150000J0D01*
G01*
X159985000Y-29383000D01*
G75*
G02*
X159835000Y-29233000I0J150000D01*
G01*
G37*
G36*
G01*
X159835000Y-30503000D02*
X159835000Y-30203000D01*
G75*
G02*
X159985000Y-30053000I150000J0D01*
G01*
X161735000Y-30053000D01*
G75*
G02*
X161885000Y-30203000I0J-150000D01*
G01*
X161885000Y-30503000D01*
G75*
G02*
X161735000Y-30653000I-150000J0D01*
G01*
X159985000Y-30653000D01*
G75*
G02*
X159835000Y-30503000I0J150000D01*
G01*
G37*
G36*
G01*
X159835000Y-31773000D02*
X159835000Y-31473000D01*
G75*
G02*
X159985000Y-31323000I150000J0D01*
G01*
X161735000Y-31323000D01*
G75*
G02*
X161885000Y-31473000I0J-150000D01*
G01*
X161885000Y-31773000D01*
G75*
G02*
X161735000Y-31923000I-150000J0D01*
G01*
X159985000Y-31923000D01*
G75*
G02*
X159835000Y-31773000I0J150000D01*
G01*
G37*
G36*
G01*
X150535000Y-31773000D02*
X150535000Y-31473000D01*
G75*
G02*
X150685000Y-31323000I150000J0D01*
G01*
X152435000Y-31323000D01*
G75*
G02*
X152585000Y-31473000I0J-150000D01*
G01*
X152585000Y-31773000D01*
G75*
G02*
X152435000Y-31923000I-150000J0D01*
G01*
X150685000Y-31923000D01*
G75*
G02*
X150535000Y-31773000I0J150000D01*
G01*
G37*
G36*
G01*
X150535000Y-30503000D02*
X150535000Y-30203000D01*
G75*
G02*
X150685000Y-30053000I150000J0D01*
G01*
X152435000Y-30053000D01*
G75*
G02*
X152585000Y-30203000I0J-150000D01*
G01*
X152585000Y-30503000D01*
G75*
G02*
X152435000Y-30653000I-150000J0D01*
G01*
X150685000Y-30653000D01*
G75*
G02*
X150535000Y-30503000I0J150000D01*
G01*
G37*
G36*
G01*
X150535000Y-29233000D02*
X150535000Y-28933000D01*
G75*
G02*
X150685000Y-28783000I150000J0D01*
G01*
X152435000Y-28783000D01*
G75*
G02*
X152585000Y-28933000I0J-150000D01*
G01*
X152585000Y-29233000D01*
G75*
G02*
X152435000Y-29383000I-150000J0D01*
G01*
X150685000Y-29383000D01*
G75*
G02*
X150535000Y-29233000I0J150000D01*
G01*
G37*
G36*
G01*
X150535000Y-27963000D02*
X150535000Y-27663000D01*
G75*
G02*
X150685000Y-27513000I150000J0D01*
G01*
X152435000Y-27513000D01*
G75*
G02*
X152585000Y-27663000I0J-150000D01*
G01*
X152585000Y-27963000D01*
G75*
G02*
X152435000Y-28113000I-150000J0D01*
G01*
X150685000Y-28113000D01*
G75*
G02*
X150535000Y-27963000I0J150000D01*
G01*
G37*
G36*
G01*
X150535000Y-26693000D02*
X150535000Y-26393000D01*
G75*
G02*
X150685000Y-26243000I150000J0D01*
G01*
X152435000Y-26243000D01*
G75*
G02*
X152585000Y-26393000I0J-150000D01*
G01*
X152585000Y-26693000D01*
G75*
G02*
X152435000Y-26843000I-150000J0D01*
G01*
X150685000Y-26843000D01*
G75*
G02*
X150535000Y-26693000I0J150000D01*
G01*
G37*
G36*
G01*
X150535000Y-25423000D02*
X150535000Y-25123000D01*
G75*
G02*
X150685000Y-24973000I150000J0D01*
G01*
X152435000Y-24973000D01*
G75*
G02*
X152585000Y-25123000I0J-150000D01*
G01*
X152585000Y-25423000D01*
G75*
G02*
X152435000Y-25573000I-150000J0D01*
G01*
X150685000Y-25573000D01*
G75*
G02*
X150535000Y-25423000I0J150000D01*
G01*
G37*
G36*
G01*
X150535000Y-24153000D02*
X150535000Y-23853000D01*
G75*
G02*
X150685000Y-23703000I150000J0D01*
G01*
X152435000Y-23703000D01*
G75*
G02*
X152585000Y-23853000I0J-150000D01*
G01*
X152585000Y-24153000D01*
G75*
G02*
X152435000Y-24303000I-150000J0D01*
G01*
X150685000Y-24303000D01*
G75*
G02*
X150535000Y-24153000I0J150000D01*
G01*
G37*
G36*
G01*
X150535000Y-22883000D02*
X150535000Y-22583000D01*
G75*
G02*
X150685000Y-22433000I150000J0D01*
G01*
X152435000Y-22433000D01*
G75*
G02*
X152585000Y-22583000I0J-150000D01*
G01*
X152585000Y-22883000D01*
G75*
G02*
X152435000Y-23033000I-150000J0D01*
G01*
X150685000Y-23033000D01*
G75*
G02*
X150535000Y-22883000I0J150000D01*
G01*
G37*
G36*
G01*
X150535000Y-21613000D02*
X150535000Y-21313000D01*
G75*
G02*
X150685000Y-21163000I150000J0D01*
G01*
X152435000Y-21163000D01*
G75*
G02*
X152585000Y-21313000I0J-150000D01*
G01*
X152585000Y-21613000D01*
G75*
G02*
X152435000Y-21763000I-150000J0D01*
G01*
X150685000Y-21763000D01*
G75*
G02*
X150535000Y-21613000I0J150000D01*
G01*
G37*
G36*
G01*
X150535000Y-20343000D02*
X150535000Y-20043000D01*
G75*
G02*
X150685000Y-19893000I150000J0D01*
G01*
X152435000Y-19893000D01*
G75*
G02*
X152585000Y-20043000I0J-150000D01*
G01*
X152585000Y-20343000D01*
G75*
G02*
X152435000Y-20493000I-150000J0D01*
G01*
X150685000Y-20493000D01*
G75*
G02*
X150535000Y-20343000I0J150000D01*
G01*
G37*
G36*
G01*
X140629000Y-89812000D02*
X140629000Y-89512000D01*
G75*
G02*
X140779000Y-89362000I150000J0D01*
G01*
X142529000Y-89362000D01*
G75*
G02*
X142679000Y-89512000I0J-150000D01*
G01*
X142679000Y-89812000D01*
G75*
G02*
X142529000Y-89962000I-150000J0D01*
G01*
X140779000Y-89962000D01*
G75*
G02*
X140629000Y-89812000I0J150000D01*
G01*
G37*
G36*
G01*
X140629000Y-91082000D02*
X140629000Y-90782000D01*
G75*
G02*
X140779000Y-90632000I150000J0D01*
G01*
X142529000Y-90632000D01*
G75*
G02*
X142679000Y-90782000I0J-150000D01*
G01*
X142679000Y-91082000D01*
G75*
G02*
X142529000Y-91232000I-150000J0D01*
G01*
X140779000Y-91232000D01*
G75*
G02*
X140629000Y-91082000I0J150000D01*
G01*
G37*
G36*
G01*
X140629000Y-92352000D02*
X140629000Y-92052000D01*
G75*
G02*
X140779000Y-91902000I150000J0D01*
G01*
X142529000Y-91902000D01*
G75*
G02*
X142679000Y-92052000I0J-150000D01*
G01*
X142679000Y-92352000D01*
G75*
G02*
X142529000Y-92502000I-150000J0D01*
G01*
X140779000Y-92502000D01*
G75*
G02*
X140629000Y-92352000I0J150000D01*
G01*
G37*
G36*
G01*
X140629000Y-93622000D02*
X140629000Y-93322000D01*
G75*
G02*
X140779000Y-93172000I150000J0D01*
G01*
X142529000Y-93172000D01*
G75*
G02*
X142679000Y-93322000I0J-150000D01*
G01*
X142679000Y-93622000D01*
G75*
G02*
X142529000Y-93772000I-150000J0D01*
G01*
X140779000Y-93772000D01*
G75*
G02*
X140629000Y-93622000I0J150000D01*
G01*
G37*
G36*
G01*
X140629000Y-94892000D02*
X140629000Y-94592000D01*
G75*
G02*
X140779000Y-94442000I150000J0D01*
G01*
X142529000Y-94442000D01*
G75*
G02*
X142679000Y-94592000I0J-150000D01*
G01*
X142679000Y-94892000D01*
G75*
G02*
X142529000Y-95042000I-150000J0D01*
G01*
X140779000Y-95042000D01*
G75*
G02*
X140629000Y-94892000I0J150000D01*
G01*
G37*
G36*
G01*
X140629000Y-96162000D02*
X140629000Y-95862000D01*
G75*
G02*
X140779000Y-95712000I150000J0D01*
G01*
X142529000Y-95712000D01*
G75*
G02*
X142679000Y-95862000I0J-150000D01*
G01*
X142679000Y-96162000D01*
G75*
G02*
X142529000Y-96312000I-150000J0D01*
G01*
X140779000Y-96312000D01*
G75*
G02*
X140629000Y-96162000I0J150000D01*
G01*
G37*
G36*
G01*
X140629000Y-97432000D02*
X140629000Y-97132000D01*
G75*
G02*
X140779000Y-96982000I150000J0D01*
G01*
X142529000Y-96982000D01*
G75*
G02*
X142679000Y-97132000I0J-150000D01*
G01*
X142679000Y-97432000D01*
G75*
G02*
X142529000Y-97582000I-150000J0D01*
G01*
X140779000Y-97582000D01*
G75*
G02*
X140629000Y-97432000I0J150000D01*
G01*
G37*
G36*
G01*
X140629000Y-98702000D02*
X140629000Y-98402000D01*
G75*
G02*
X140779000Y-98252000I150000J0D01*
G01*
X142529000Y-98252000D01*
G75*
G02*
X142679000Y-98402000I0J-150000D01*
G01*
X142679000Y-98702000D01*
G75*
G02*
X142529000Y-98852000I-150000J0D01*
G01*
X140779000Y-98852000D01*
G75*
G02*
X140629000Y-98702000I0J150000D01*
G01*
G37*
G36*
G01*
X140629000Y-99972000D02*
X140629000Y-99672000D01*
G75*
G02*
X140779000Y-99522000I150000J0D01*
G01*
X142529000Y-99522000D01*
G75*
G02*
X142679000Y-99672000I0J-150000D01*
G01*
X142679000Y-99972000D01*
G75*
G02*
X142529000Y-100122000I-150000J0D01*
G01*
X140779000Y-100122000D01*
G75*
G02*
X140629000Y-99972000I0J150000D01*
G01*
G37*
G36*
G01*
X140629000Y-101242000D02*
X140629000Y-100942000D01*
G75*
G02*
X140779000Y-100792000I150000J0D01*
G01*
X142529000Y-100792000D01*
G75*
G02*
X142679000Y-100942000I0J-150000D01*
G01*
X142679000Y-101242000D01*
G75*
G02*
X142529000Y-101392000I-150000J0D01*
G01*
X140779000Y-101392000D01*
G75*
G02*
X140629000Y-101242000I0J150000D01*
G01*
G37*
G36*
G01*
X140629000Y-102512000D02*
X140629000Y-102212000D01*
G75*
G02*
X140779000Y-102062000I150000J0D01*
G01*
X142529000Y-102062000D01*
G75*
G02*
X142679000Y-102212000I0J-150000D01*
G01*
X142679000Y-102512000D01*
G75*
G02*
X142529000Y-102662000I-150000J0D01*
G01*
X140779000Y-102662000D01*
G75*
G02*
X140629000Y-102512000I0J150000D01*
G01*
G37*
G36*
G01*
X140629000Y-103782000D02*
X140629000Y-103482000D01*
G75*
G02*
X140779000Y-103332000I150000J0D01*
G01*
X142529000Y-103332000D01*
G75*
G02*
X142679000Y-103482000I0J-150000D01*
G01*
X142679000Y-103782000D01*
G75*
G02*
X142529000Y-103932000I-150000J0D01*
G01*
X140779000Y-103932000D01*
G75*
G02*
X140629000Y-103782000I0J150000D01*
G01*
G37*
G36*
G01*
X149929000Y-103782000D02*
X149929000Y-103482000D01*
G75*
G02*
X150079000Y-103332000I150000J0D01*
G01*
X151829000Y-103332000D01*
G75*
G02*
X151979000Y-103482000I0J-150000D01*
G01*
X151979000Y-103782000D01*
G75*
G02*
X151829000Y-103932000I-150000J0D01*
G01*
X150079000Y-103932000D01*
G75*
G02*
X149929000Y-103782000I0J150000D01*
G01*
G37*
G36*
G01*
X149929000Y-102512000D02*
X149929000Y-102212000D01*
G75*
G02*
X150079000Y-102062000I150000J0D01*
G01*
X151829000Y-102062000D01*
G75*
G02*
X151979000Y-102212000I0J-150000D01*
G01*
X151979000Y-102512000D01*
G75*
G02*
X151829000Y-102662000I-150000J0D01*
G01*
X150079000Y-102662000D01*
G75*
G02*
X149929000Y-102512000I0J150000D01*
G01*
G37*
G36*
G01*
X149929000Y-101242000D02*
X149929000Y-100942000D01*
G75*
G02*
X150079000Y-100792000I150000J0D01*
G01*
X151829000Y-100792000D01*
G75*
G02*
X151979000Y-100942000I0J-150000D01*
G01*
X151979000Y-101242000D01*
G75*
G02*
X151829000Y-101392000I-150000J0D01*
G01*
X150079000Y-101392000D01*
G75*
G02*
X149929000Y-101242000I0J150000D01*
G01*
G37*
G36*
G01*
X149929000Y-99972000D02*
X149929000Y-99672000D01*
G75*
G02*
X150079000Y-99522000I150000J0D01*
G01*
X151829000Y-99522000D01*
G75*
G02*
X151979000Y-99672000I0J-150000D01*
G01*
X151979000Y-99972000D01*
G75*
G02*
X151829000Y-100122000I-150000J0D01*
G01*
X150079000Y-100122000D01*
G75*
G02*
X149929000Y-99972000I0J150000D01*
G01*
G37*
G36*
G01*
X149929000Y-98702000D02*
X149929000Y-98402000D01*
G75*
G02*
X150079000Y-98252000I150000J0D01*
G01*
X151829000Y-98252000D01*
G75*
G02*
X151979000Y-98402000I0J-150000D01*
G01*
X151979000Y-98702000D01*
G75*
G02*
X151829000Y-98852000I-150000J0D01*
G01*
X150079000Y-98852000D01*
G75*
G02*
X149929000Y-98702000I0J150000D01*
G01*
G37*
G36*
G01*
X149929000Y-97432000D02*
X149929000Y-97132000D01*
G75*
G02*
X150079000Y-96982000I150000J0D01*
G01*
X151829000Y-96982000D01*
G75*
G02*
X151979000Y-97132000I0J-150000D01*
G01*
X151979000Y-97432000D01*
G75*
G02*
X151829000Y-97582000I-150000J0D01*
G01*
X150079000Y-97582000D01*
G75*
G02*
X149929000Y-97432000I0J150000D01*
G01*
G37*
G36*
G01*
X149929000Y-96162000D02*
X149929000Y-95862000D01*
G75*
G02*
X150079000Y-95712000I150000J0D01*
G01*
X151829000Y-95712000D01*
G75*
G02*
X151979000Y-95862000I0J-150000D01*
G01*
X151979000Y-96162000D01*
G75*
G02*
X151829000Y-96312000I-150000J0D01*
G01*
X150079000Y-96312000D01*
G75*
G02*
X149929000Y-96162000I0J150000D01*
G01*
G37*
G36*
G01*
X149929000Y-94892000D02*
X149929000Y-94592000D01*
G75*
G02*
X150079000Y-94442000I150000J0D01*
G01*
X151829000Y-94442000D01*
G75*
G02*
X151979000Y-94592000I0J-150000D01*
G01*
X151979000Y-94892000D01*
G75*
G02*
X151829000Y-95042000I-150000J0D01*
G01*
X150079000Y-95042000D01*
G75*
G02*
X149929000Y-94892000I0J150000D01*
G01*
G37*
G36*
G01*
X149929000Y-93622000D02*
X149929000Y-93322000D01*
G75*
G02*
X150079000Y-93172000I150000J0D01*
G01*
X151829000Y-93172000D01*
G75*
G02*
X151979000Y-93322000I0J-150000D01*
G01*
X151979000Y-93622000D01*
G75*
G02*
X151829000Y-93772000I-150000J0D01*
G01*
X150079000Y-93772000D01*
G75*
G02*
X149929000Y-93622000I0J150000D01*
G01*
G37*
G36*
G01*
X149929000Y-92352000D02*
X149929000Y-92052000D01*
G75*
G02*
X150079000Y-91902000I150000J0D01*
G01*
X151829000Y-91902000D01*
G75*
G02*
X151979000Y-92052000I0J-150000D01*
G01*
X151979000Y-92352000D01*
G75*
G02*
X151829000Y-92502000I-150000J0D01*
G01*
X150079000Y-92502000D01*
G75*
G02*
X149929000Y-92352000I0J150000D01*
G01*
G37*
G36*
G01*
X149929000Y-91082000D02*
X149929000Y-90782000D01*
G75*
G02*
X150079000Y-90632000I150000J0D01*
G01*
X151829000Y-90632000D01*
G75*
G02*
X151979000Y-90782000I0J-150000D01*
G01*
X151979000Y-91082000D01*
G75*
G02*
X151829000Y-91232000I-150000J0D01*
G01*
X150079000Y-91232000D01*
G75*
G02*
X149929000Y-91082000I0J150000D01*
G01*
G37*
G36*
G01*
X149929000Y-89812000D02*
X149929000Y-89512000D01*
G75*
G02*
X150079000Y-89362000I150000J0D01*
G01*
X151829000Y-89362000D01*
G75*
G02*
X151979000Y-89512000I0J-150000D01*
G01*
X151979000Y-89812000D01*
G75*
G02*
X151829000Y-89962000I-150000J0D01*
G01*
X150079000Y-89962000D01*
G75*
G02*
X149929000Y-89812000I0J150000D01*
G01*
G37*
D10*
X111886000Y-90170000D03*
X111886000Y-91440000D03*
X111886000Y-92710000D03*
X111886000Y-93980000D03*
X111886000Y-95250000D03*
X111886000Y-96520000D03*
X111886000Y-97790000D03*
X111886000Y-99060000D03*
X111886000Y-100330000D03*
X111886000Y-101600000D03*
X121286000Y-101600000D03*
X121286000Y-100330000D03*
X121286000Y-99060000D03*
X121286000Y-97790000D03*
X121286000Y-96520000D03*
X121286000Y-95250000D03*
X121286000Y-93980000D03*
X121286000Y-92710000D03*
X121286000Y-91440000D03*
X121286000Y-90170000D03*
G36*
G01*
X45463000Y-82787500D02*
X45463000Y-82312500D01*
G75*
G02*
X45700500Y-82075000I237500J0D01*
G01*
X46275500Y-82075000D01*
G75*
G02*
X46513000Y-82312500I0J-237500D01*
G01*
X46513000Y-82787500D01*
G75*
G02*
X46275500Y-83025000I-237500J0D01*
G01*
X45700500Y-83025000D01*
G75*
G02*
X45463000Y-82787500I0J237500D01*
G01*
G37*
G36*
G01*
X47213000Y-82787500D02*
X47213000Y-82312500D01*
G75*
G02*
X47450500Y-82075000I237500J0D01*
G01*
X48025500Y-82075000D01*
G75*
G02*
X48263000Y-82312500I0J-237500D01*
G01*
X48263000Y-82787500D01*
G75*
G02*
X48025500Y-83025000I-237500J0D01*
G01*
X47450500Y-83025000D01*
G75*
G02*
X47213000Y-82787500I0J237500D01*
G01*
G37*
G36*
G01*
X46352000Y-47354500D02*
X46352000Y-46879500D01*
G75*
G02*
X46589500Y-46642000I237500J0D01*
G01*
X47164500Y-46642000D01*
G75*
G02*
X47402000Y-46879500I0J-237500D01*
G01*
X47402000Y-47354500D01*
G75*
G02*
X47164500Y-47592000I-237500J0D01*
G01*
X46589500Y-47592000D01*
G75*
G02*
X46352000Y-47354500I0J237500D01*
G01*
G37*
G36*
G01*
X48102000Y-47354500D02*
X48102000Y-46879500D01*
G75*
G02*
X48339500Y-46642000I237500J0D01*
G01*
X48914500Y-46642000D01*
G75*
G02*
X49152000Y-46879500I0J-237500D01*
G01*
X49152000Y-47354500D01*
G75*
G02*
X48914500Y-47592000I-237500J0D01*
G01*
X48339500Y-47592000D01*
G75*
G02*
X48102000Y-47354500I0J237500D01*
G01*
G37*
G36*
G01*
X64767000Y-38972500D02*
X64767000Y-38497500D01*
G75*
G02*
X65004500Y-38260000I237500J0D01*
G01*
X65579500Y-38260000D01*
G75*
G02*
X65817000Y-38497500I0J-237500D01*
G01*
X65817000Y-38972500D01*
G75*
G02*
X65579500Y-39210000I-237500J0D01*
G01*
X65004500Y-39210000D01*
G75*
G02*
X64767000Y-38972500I0J237500D01*
G01*
G37*
G36*
G01*
X66517000Y-38972500D02*
X66517000Y-38497500D01*
G75*
G02*
X66754500Y-38260000I237500J0D01*
G01*
X67329500Y-38260000D01*
G75*
G02*
X67567000Y-38497500I0J-237500D01*
G01*
X67567000Y-38972500D01*
G75*
G02*
X67329500Y-39210000I-237500J0D01*
G01*
X66754500Y-39210000D01*
G75*
G02*
X66517000Y-38972500I0J237500D01*
G01*
G37*
G36*
G01*
X124730500Y-91409000D02*
X125205500Y-91409000D01*
G75*
G02*
X125443000Y-91646500I0J-237500D01*
G01*
X125443000Y-92221500D01*
G75*
G02*
X125205500Y-92459000I-237500J0D01*
G01*
X124730500Y-92459000D01*
G75*
G02*
X124493000Y-92221500I0J237500D01*
G01*
X124493000Y-91646500D01*
G75*
G02*
X124730500Y-91409000I237500J0D01*
G01*
G37*
G36*
G01*
X124730500Y-89659000D02*
X125205500Y-89659000D01*
G75*
G02*
X125443000Y-89896500I0J-237500D01*
G01*
X125443000Y-90471500D01*
G75*
G02*
X125205500Y-90709000I-237500J0D01*
G01*
X124730500Y-90709000D01*
G75*
G02*
X124493000Y-90471500I0J237500D01*
G01*
X124493000Y-89896500D01*
G75*
G02*
X124730500Y-89659000I237500J0D01*
G01*
G37*
G36*
G01*
X93822000Y-20938500D02*
X93822000Y-20463500D01*
G75*
G02*
X94059500Y-20226000I237500J0D01*
G01*
X94634500Y-20226000D01*
G75*
G02*
X94872000Y-20463500I0J-237500D01*
G01*
X94872000Y-20938500D01*
G75*
G02*
X94634500Y-21176000I-237500J0D01*
G01*
X94059500Y-21176000D01*
G75*
G02*
X93822000Y-20938500I0J237500D01*
G01*
G37*
G36*
G01*
X92072000Y-20938500D02*
X92072000Y-20463500D01*
G75*
G02*
X92309500Y-20226000I237500J0D01*
G01*
X92884500Y-20226000D01*
G75*
G02*
X93122000Y-20463500I0J-237500D01*
G01*
X93122000Y-20938500D01*
G75*
G02*
X92884500Y-21176000I-237500J0D01*
G01*
X92309500Y-21176000D01*
G75*
G02*
X92072000Y-20938500I0J237500D01*
G01*
G37*
G36*
G01*
X108455000Y-20938500D02*
X108455000Y-20463500D01*
G75*
G02*
X108692500Y-20226000I237500J0D01*
G01*
X109267500Y-20226000D01*
G75*
G02*
X109505000Y-20463500I0J-237500D01*
G01*
X109505000Y-20938500D01*
G75*
G02*
X109267500Y-21176000I-237500J0D01*
G01*
X108692500Y-21176000D01*
G75*
G02*
X108455000Y-20938500I0J237500D01*
G01*
G37*
G36*
G01*
X110205000Y-20938500D02*
X110205000Y-20463500D01*
G75*
G02*
X110442500Y-20226000I237500J0D01*
G01*
X111017500Y-20226000D01*
G75*
G02*
X111255000Y-20463500I0J-237500D01*
G01*
X111255000Y-20938500D01*
G75*
G02*
X111017500Y-21176000I-237500J0D01*
G01*
X110442500Y-21176000D01*
G75*
G02*
X110205000Y-20938500I0J237500D01*
G01*
G37*
G36*
G01*
X59786000Y-20176500D02*
X59786000Y-19701500D01*
G75*
G02*
X60023500Y-19464000I237500J0D01*
G01*
X60598500Y-19464000D01*
G75*
G02*
X60836000Y-19701500I0J-237500D01*
G01*
X60836000Y-20176500D01*
G75*
G02*
X60598500Y-20414000I-237500J0D01*
G01*
X60023500Y-20414000D01*
G75*
G02*
X59786000Y-20176500I0J237500D01*
G01*
G37*
G36*
G01*
X58036000Y-20176500D02*
X58036000Y-19701500D01*
G75*
G02*
X58273500Y-19464000I237500J0D01*
G01*
X58848500Y-19464000D01*
G75*
G02*
X59086000Y-19701500I0J-237500D01*
G01*
X59086000Y-20176500D01*
G75*
G02*
X58848500Y-20414000I-237500J0D01*
G01*
X58273500Y-20414000D01*
G75*
G02*
X58036000Y-20176500I0J237500D01*
G01*
G37*
G36*
G01*
X75943000Y-20303500D02*
X75943000Y-19828500D01*
G75*
G02*
X76180500Y-19591000I237500J0D01*
G01*
X76755500Y-19591000D01*
G75*
G02*
X76993000Y-19828500I0J-237500D01*
G01*
X76993000Y-20303500D01*
G75*
G02*
X76755500Y-20541000I-237500J0D01*
G01*
X76180500Y-20541000D01*
G75*
G02*
X75943000Y-20303500I0J237500D01*
G01*
G37*
G36*
G01*
X77693000Y-20303500D02*
X77693000Y-19828500D01*
G75*
G02*
X77930500Y-19591000I237500J0D01*
G01*
X78505500Y-19591000D01*
G75*
G02*
X78743000Y-19828500I0J-237500D01*
G01*
X78743000Y-20303500D01*
G75*
G02*
X78505500Y-20541000I-237500J0D01*
G01*
X77930500Y-20541000D01*
G75*
G02*
X77693000Y-20303500I0J237500D01*
G01*
G37*
G36*
G01*
X92853500Y-106296000D02*
X93328500Y-106296000D01*
G75*
G02*
X93566000Y-106533500I0J-237500D01*
G01*
X93566000Y-107108500D01*
G75*
G02*
X93328500Y-107346000I-237500J0D01*
G01*
X92853500Y-107346000D01*
G75*
G02*
X92616000Y-107108500I0J237500D01*
G01*
X92616000Y-106533500D01*
G75*
G02*
X92853500Y-106296000I237500J0D01*
G01*
G37*
G36*
G01*
X92853500Y-108046000D02*
X93328500Y-108046000D01*
G75*
G02*
X93566000Y-108283500I0J-237500D01*
G01*
X93566000Y-108858500D01*
G75*
G02*
X93328500Y-109096000I-237500J0D01*
G01*
X92853500Y-109096000D01*
G75*
G02*
X92616000Y-108858500I0J237500D01*
G01*
X92616000Y-108283500D01*
G75*
G02*
X92853500Y-108046000I237500J0D01*
G01*
G37*
G36*
G01*
X90186500Y-81630000D02*
X90661500Y-81630000D01*
G75*
G02*
X90899000Y-81867500I0J-237500D01*
G01*
X90899000Y-82442500D01*
G75*
G02*
X90661500Y-82680000I-237500J0D01*
G01*
X90186500Y-82680000D01*
G75*
G02*
X89949000Y-82442500I0J237500D01*
G01*
X89949000Y-81867500D01*
G75*
G02*
X90186500Y-81630000I237500J0D01*
G01*
G37*
G36*
G01*
X90186500Y-79880000D02*
X90661500Y-79880000D01*
G75*
G02*
X90899000Y-80117500I0J-237500D01*
G01*
X90899000Y-80692500D01*
G75*
G02*
X90661500Y-80930000I-237500J0D01*
G01*
X90186500Y-80930000D01*
G75*
G02*
X89949000Y-80692500I0J237500D01*
G01*
X89949000Y-80117500D01*
G75*
G02*
X90186500Y-79880000I237500J0D01*
G01*
G37*
G36*
G01*
X42768000Y-20176500D02*
X42768000Y-19701500D01*
G75*
G02*
X43005500Y-19464000I237500J0D01*
G01*
X43580500Y-19464000D01*
G75*
G02*
X43818000Y-19701500I0J-237500D01*
G01*
X43818000Y-20176500D01*
G75*
G02*
X43580500Y-20414000I-237500J0D01*
G01*
X43005500Y-20414000D01*
G75*
G02*
X42768000Y-20176500I0J237500D01*
G01*
G37*
G36*
G01*
X41018000Y-20176500D02*
X41018000Y-19701500D01*
G75*
G02*
X41255500Y-19464000I237500J0D01*
G01*
X41830500Y-19464000D01*
G75*
G02*
X42068000Y-19701500I0J-237500D01*
G01*
X42068000Y-20176500D01*
G75*
G02*
X41830500Y-20414000I-237500J0D01*
G01*
X41255500Y-20414000D01*
G75*
G02*
X41018000Y-20176500I0J237500D01*
G01*
G37*
G36*
G01*
X126362000Y-20303500D02*
X126362000Y-19828500D01*
G75*
G02*
X126599500Y-19591000I237500J0D01*
G01*
X127174500Y-19591000D01*
G75*
G02*
X127412000Y-19828500I0J-237500D01*
G01*
X127412000Y-20303500D01*
G75*
G02*
X127174500Y-20541000I-237500J0D01*
G01*
X126599500Y-20541000D01*
G75*
G02*
X126362000Y-20303500I0J237500D01*
G01*
G37*
G36*
G01*
X128112000Y-20303500D02*
X128112000Y-19828500D01*
G75*
G02*
X128349500Y-19591000I237500J0D01*
G01*
X128924500Y-19591000D01*
G75*
G02*
X129162000Y-19828500I0J-237500D01*
G01*
X129162000Y-20303500D01*
G75*
G02*
X128924500Y-20541000I-237500J0D01*
G01*
X128349500Y-20541000D01*
G75*
G02*
X128112000Y-20303500I0J237500D01*
G01*
G37*
G36*
G01*
X152657000Y-80026500D02*
X152657000Y-80501500D01*
G75*
G02*
X152419500Y-80739000I-237500J0D01*
G01*
X151844500Y-80739000D01*
G75*
G02*
X151607000Y-80501500I0J237500D01*
G01*
X151607000Y-80026500D01*
G75*
G02*
X151844500Y-79789000I237500J0D01*
G01*
X152419500Y-79789000D01*
G75*
G02*
X152657000Y-80026500I0J-237500D01*
G01*
G37*
G36*
G01*
X150907000Y-80026500D02*
X150907000Y-80501500D01*
G75*
G02*
X150669500Y-80739000I-237500J0D01*
G01*
X150094500Y-80739000D01*
G75*
G02*
X149857000Y-80501500I0J237500D01*
G01*
X149857000Y-80026500D01*
G75*
G02*
X150094500Y-79789000I237500J0D01*
G01*
X150669500Y-79789000D01*
G75*
G02*
X150907000Y-80026500I0J-237500D01*
G01*
G37*
G36*
G01*
X144142000Y-26018500D02*
X144142000Y-25543500D01*
G75*
G02*
X144379500Y-25306000I237500J0D01*
G01*
X144954500Y-25306000D01*
G75*
G02*
X145192000Y-25543500I0J-237500D01*
G01*
X145192000Y-26018500D01*
G75*
G02*
X144954500Y-26256000I-237500J0D01*
G01*
X144379500Y-26256000D01*
G75*
G02*
X144142000Y-26018500I0J237500D01*
G01*
G37*
G36*
G01*
X145892000Y-26018500D02*
X145892000Y-25543500D01*
G75*
G02*
X146129500Y-25306000I237500J0D01*
G01*
X146704500Y-25306000D01*
G75*
G02*
X146942000Y-25543500I0J-237500D01*
G01*
X146942000Y-26018500D01*
G75*
G02*
X146704500Y-26256000I-237500J0D01*
G01*
X146129500Y-26256000D01*
G75*
G02*
X145892000Y-26018500I0J237500D01*
G01*
G37*
G36*
G01*
X107219000Y-79518500D02*
X107219000Y-79993500D01*
G75*
G02*
X106981500Y-80231000I-237500J0D01*
G01*
X106406500Y-80231000D01*
G75*
G02*
X106169000Y-79993500I0J237500D01*
G01*
X106169000Y-79518500D01*
G75*
G02*
X106406500Y-79281000I237500J0D01*
G01*
X106981500Y-79281000D01*
G75*
G02*
X107219000Y-79518500I0J-237500D01*
G01*
G37*
G36*
G01*
X108969000Y-79518500D02*
X108969000Y-79993500D01*
G75*
G02*
X108731500Y-80231000I-237500J0D01*
G01*
X108156500Y-80231000D01*
G75*
G02*
X107919000Y-79993500I0J237500D01*
G01*
X107919000Y-79518500D01*
G75*
G02*
X108156500Y-79281000I237500J0D01*
G01*
X108731500Y-79281000D01*
G75*
G02*
X108969000Y-79518500I0J-237500D01*
G01*
G37*
G36*
G01*
X130079000Y-79772500D02*
X130079000Y-80247500D01*
G75*
G02*
X129841500Y-80485000I-237500J0D01*
G01*
X129266500Y-80485000D01*
G75*
G02*
X129029000Y-80247500I0J237500D01*
G01*
X129029000Y-79772500D01*
G75*
G02*
X129266500Y-79535000I237500J0D01*
G01*
X129841500Y-79535000D01*
G75*
G02*
X130079000Y-79772500I0J-237500D01*
G01*
G37*
G36*
G01*
X131829000Y-79772500D02*
X131829000Y-80247500D01*
G75*
G02*
X131591500Y-80485000I-237500J0D01*
G01*
X131016500Y-80485000D01*
G75*
G02*
X130779000Y-80247500I0J237500D01*
G01*
X130779000Y-79772500D01*
G75*
G02*
X131016500Y-79535000I237500J0D01*
G01*
X131591500Y-79535000D01*
G75*
G02*
X131829000Y-79772500I0J-237500D01*
G01*
G37*
G36*
G01*
X165323000Y-20430500D02*
X165323000Y-19955500D01*
G75*
G02*
X165560500Y-19718000I237500J0D01*
G01*
X166135500Y-19718000D01*
G75*
G02*
X166373000Y-19955500I0J-237500D01*
G01*
X166373000Y-20430500D01*
G75*
G02*
X166135500Y-20668000I-237500J0D01*
G01*
X165560500Y-20668000D01*
G75*
G02*
X165323000Y-20430500I0J237500D01*
G01*
G37*
G36*
G01*
X163573000Y-20430500D02*
X163573000Y-19955500D01*
G75*
G02*
X163810500Y-19718000I237500J0D01*
G01*
X164385500Y-19718000D01*
G75*
G02*
X164623000Y-19955500I0J-237500D01*
G01*
X164623000Y-20430500D01*
G75*
G02*
X164385500Y-20668000I-237500J0D01*
G01*
X163810500Y-20668000D01*
G75*
G02*
X163573000Y-20430500I0J237500D01*
G01*
G37*
G36*
G01*
X213837000Y-20557500D02*
X213837000Y-20082500D01*
G75*
G02*
X214074500Y-19845000I237500J0D01*
G01*
X214649500Y-19845000D01*
G75*
G02*
X214887000Y-20082500I0J-237500D01*
G01*
X214887000Y-20557500D01*
G75*
G02*
X214649500Y-20795000I-237500J0D01*
G01*
X214074500Y-20795000D01*
G75*
G02*
X213837000Y-20557500I0J237500D01*
G01*
G37*
G36*
G01*
X212087000Y-20557500D02*
X212087000Y-20082500D01*
G75*
G02*
X212324500Y-19845000I237500J0D01*
G01*
X212899500Y-19845000D01*
G75*
G02*
X213137000Y-20082500I0J-237500D01*
G01*
X213137000Y-20557500D01*
G75*
G02*
X212899500Y-20795000I-237500J0D01*
G01*
X212324500Y-20795000D01*
G75*
G02*
X212087000Y-20557500I0J237500D01*
G01*
G37*
G36*
G01*
X212087000Y-39734500D02*
X212087000Y-39259500D01*
G75*
G02*
X212324500Y-39022000I237500J0D01*
G01*
X212899500Y-39022000D01*
G75*
G02*
X213137000Y-39259500I0J-237500D01*
G01*
X213137000Y-39734500D01*
G75*
G02*
X212899500Y-39972000I-237500J0D01*
G01*
X212324500Y-39972000D01*
G75*
G02*
X212087000Y-39734500I0J237500D01*
G01*
G37*
G36*
G01*
X213837000Y-39734500D02*
X213837000Y-39259500D01*
G75*
G02*
X214074500Y-39022000I237500J0D01*
G01*
X214649500Y-39022000D01*
G75*
G02*
X214887000Y-39259500I0J-237500D01*
G01*
X214887000Y-39734500D01*
G75*
G02*
X214649500Y-39972000I-237500J0D01*
G01*
X214074500Y-39972000D01*
G75*
G02*
X213837000Y-39734500I0J237500D01*
G01*
G37*
G36*
G01*
X186433000Y-75421500D02*
X186433000Y-74946500D01*
G75*
G02*
X186670500Y-74709000I237500J0D01*
G01*
X187245500Y-74709000D01*
G75*
G02*
X187483000Y-74946500I0J-237500D01*
G01*
X187483000Y-75421500D01*
G75*
G02*
X187245500Y-75659000I-237500J0D01*
G01*
X186670500Y-75659000D01*
G75*
G02*
X186433000Y-75421500I0J237500D01*
G01*
G37*
G36*
G01*
X188183000Y-75421500D02*
X188183000Y-74946500D01*
G75*
G02*
X188420500Y-74709000I237500J0D01*
G01*
X188995500Y-74709000D01*
G75*
G02*
X189233000Y-74946500I0J-237500D01*
G01*
X189233000Y-75421500D01*
G75*
G02*
X188995500Y-75659000I-237500J0D01*
G01*
X188420500Y-75659000D01*
G75*
G02*
X188183000Y-75421500I0J237500D01*
G01*
G37*
G36*
G01*
X175638000Y-92312500D02*
X175638000Y-91837500D01*
G75*
G02*
X175875500Y-91600000I237500J0D01*
G01*
X176450500Y-91600000D01*
G75*
G02*
X176688000Y-91837500I0J-237500D01*
G01*
X176688000Y-92312500D01*
G75*
G02*
X176450500Y-92550000I-237500J0D01*
G01*
X175875500Y-92550000D01*
G75*
G02*
X175638000Y-92312500I0J237500D01*
G01*
G37*
G36*
G01*
X177388000Y-92312500D02*
X177388000Y-91837500D01*
G75*
G02*
X177625500Y-91600000I237500J0D01*
G01*
X178200500Y-91600000D01*
G75*
G02*
X178438000Y-91837500I0J-237500D01*
G01*
X178438000Y-92312500D01*
G75*
G02*
X178200500Y-92550000I-237500J0D01*
G01*
X177625500Y-92550000D01*
G75*
G02*
X177388000Y-92312500I0J237500D01*
G01*
G37*
G36*
G01*
X155798000Y-89899500D02*
X155798000Y-89424500D01*
G75*
G02*
X156035500Y-89187000I237500J0D01*
G01*
X156610500Y-89187000D01*
G75*
G02*
X156848000Y-89424500I0J-237500D01*
G01*
X156848000Y-89899500D01*
G75*
G02*
X156610500Y-90137000I-237500J0D01*
G01*
X156035500Y-90137000D01*
G75*
G02*
X155798000Y-89899500I0J237500D01*
G01*
G37*
G36*
G01*
X154048000Y-89899500D02*
X154048000Y-89424500D01*
G75*
G02*
X154285500Y-89187000I237500J0D01*
G01*
X154860500Y-89187000D01*
G75*
G02*
X155098000Y-89424500I0J-237500D01*
G01*
X155098000Y-89899500D01*
G75*
G02*
X154860500Y-90137000I-237500J0D01*
G01*
X154285500Y-90137000D01*
G75*
G02*
X154048000Y-89899500I0J237500D01*
G01*
G37*
G36*
G01*
X167242500Y-41245000D02*
X166767500Y-41245000D01*
G75*
G02*
X166530000Y-41007500I0J237500D01*
G01*
X166530000Y-40432500D01*
G75*
G02*
X166767500Y-40195000I237500J0D01*
G01*
X167242500Y-40195000D01*
G75*
G02*
X167480000Y-40432500I0J-237500D01*
G01*
X167480000Y-41007500D01*
G75*
G02*
X167242500Y-41245000I-237500J0D01*
G01*
G37*
G36*
G01*
X167242500Y-42995000D02*
X166767500Y-42995000D01*
G75*
G02*
X166530000Y-42757500I0J237500D01*
G01*
X166530000Y-42182500D01*
G75*
G02*
X166767500Y-41945000I237500J0D01*
G01*
X167242500Y-41945000D01*
G75*
G02*
X167480000Y-42182500I0J-237500D01*
G01*
X167480000Y-42757500D01*
G75*
G02*
X167242500Y-42995000I-237500J0D01*
G01*
G37*
G36*
G01*
X170592000Y-68850500D02*
X170592000Y-69325500D01*
G75*
G02*
X170354500Y-69563000I-237500J0D01*
G01*
X169779500Y-69563000D01*
G75*
G02*
X169542000Y-69325500I0J237500D01*
G01*
X169542000Y-68850500D01*
G75*
G02*
X169779500Y-68613000I237500J0D01*
G01*
X170354500Y-68613000D01*
G75*
G02*
X170592000Y-68850500I0J-237500D01*
G01*
G37*
G36*
G01*
X172342000Y-68850500D02*
X172342000Y-69325500D01*
G75*
G02*
X172104500Y-69563000I-237500J0D01*
G01*
X171529500Y-69563000D01*
G75*
G02*
X171292000Y-69325500I0J237500D01*
G01*
X171292000Y-68850500D01*
G75*
G02*
X171529500Y-68613000I237500J0D01*
G01*
X172104500Y-68613000D01*
G75*
G02*
X172342000Y-68850500I0J-237500D01*
G01*
G37*
G36*
G01*
X231250500Y-88395000D02*
X230775500Y-88395000D01*
G75*
G02*
X230538000Y-88157500I0J237500D01*
G01*
X230538000Y-87582500D01*
G75*
G02*
X230775500Y-87345000I237500J0D01*
G01*
X231250500Y-87345000D01*
G75*
G02*
X231488000Y-87582500I0J-237500D01*
G01*
X231488000Y-88157500D01*
G75*
G02*
X231250500Y-88395000I-237500J0D01*
G01*
G37*
G36*
G01*
X231250500Y-86645000D02*
X230775500Y-86645000D01*
G75*
G02*
X230538000Y-86407500I0J237500D01*
G01*
X230538000Y-85832500D01*
G75*
G02*
X230775500Y-85595000I237500J0D01*
G01*
X231250500Y-85595000D01*
G75*
G02*
X231488000Y-85832500I0J-237500D01*
G01*
X231488000Y-86407500D01*
G75*
G02*
X231250500Y-86645000I-237500J0D01*
G01*
G37*
D11*
X56482000Y-38735000D03*
X56482000Y-40005000D03*
X56482000Y-41275000D03*
X56482000Y-42545000D03*
X56482000Y-43815000D03*
X56482000Y-45085000D03*
X56482000Y-46355000D03*
X56482000Y-47625000D03*
X61882000Y-47625000D03*
X61882000Y-46355000D03*
X61882000Y-45085000D03*
X61882000Y-43815000D03*
X61882000Y-42545000D03*
X61882000Y-41275000D03*
X61882000Y-40005000D03*
X61882000Y-38735000D03*
X203929000Y-20320000D03*
X203929000Y-21590000D03*
X203929000Y-22860000D03*
X203929000Y-24130000D03*
X203929000Y-25400000D03*
X203929000Y-26670000D03*
X203929000Y-27940000D03*
X203929000Y-29210000D03*
X209329000Y-29210000D03*
X209329000Y-27940000D03*
X209329000Y-26670000D03*
X209329000Y-25400000D03*
X209329000Y-24130000D03*
X209329000Y-22860000D03*
X209329000Y-21590000D03*
X209329000Y-20320000D03*
X203929000Y-39497000D03*
X203929000Y-40767000D03*
X203929000Y-42037000D03*
X203929000Y-43307000D03*
X203929000Y-44577000D03*
X203929000Y-45847000D03*
X203929000Y-47117000D03*
X203929000Y-48387000D03*
X209329000Y-48387000D03*
X209329000Y-47117000D03*
X209329000Y-45847000D03*
X209329000Y-44577000D03*
X209329000Y-43307000D03*
X209329000Y-42037000D03*
X209329000Y-40767000D03*
X209329000Y-39497000D03*
X183548000Y-75184000D03*
X183548000Y-76454000D03*
X183548000Y-77724000D03*
X183548000Y-78994000D03*
X183548000Y-80264000D03*
X183548000Y-81534000D03*
X183548000Y-82804000D03*
X183548000Y-84074000D03*
X178148000Y-84074000D03*
X178148000Y-82804000D03*
X178148000Y-81534000D03*
X178148000Y-80264000D03*
X178148000Y-78994000D03*
X178148000Y-77724000D03*
X178148000Y-76454000D03*
X178148000Y-75184000D03*
X172499000Y-92075000D03*
X172499000Y-93345000D03*
X172499000Y-94615000D03*
X172499000Y-95885000D03*
X172499000Y-97155000D03*
X172499000Y-98425000D03*
X172499000Y-99695000D03*
X172499000Y-100965000D03*
X167099000Y-100965000D03*
X167099000Y-99695000D03*
X167099000Y-98425000D03*
X167099000Y-97155000D03*
X167099000Y-95885000D03*
X167099000Y-94615000D03*
X167099000Y-93345000D03*
X167099000Y-92075000D03*
M02*
